####
#
# OBJ File Generated by Meshlab
#
####
# Object Elbow.obj
#
# Vertices: 210
# Faces: 70
#
####
vn -0.545083 0.111983 0.830869
v -67.423134 96.010849 -5.633658
vn -0.545083 0.111983 0.830869
v -30.055405 -82.375000 42.923569
vn -0.545083 0.111983 0.830869
v -17.824169 94.000000 27.176258
vn -0.379537 0.690241 0.616051
v -17.824169 94.000000 27.176258
vn -0.379537 0.690241 0.616051
v -6.333909 96.000473 32.013786
vn -0.379537 0.690241 0.616051
v -67.423134 96.010849 -5.633658
vn -0.402471 0.115789 0.908080
v -17.824169 94.000000 27.176258
vn -0.402471 0.115789 0.908080
v -21.094038 -85.893906 48.665310
vn -0.402471 0.115789 0.908080
v -6.333909 96.000473 32.013786
vn 0.185383 0.106422 0.976887
v 21.429708 -85.833115 48.563805
vn 0.185383 0.106422 0.976887
v 5.317072 94.000000 32.030479
vn 0.185383 0.106422 0.976887
v -1.659965 -85.614250 52.921673
vn -0.393512 -0.890255 -0.229336
v -66.901276 -93.027016 -5.312027
vn -0.393512 -0.890255 -0.229336
v -103.395035 -57.328949 -81.268867
vn -0.393512 -0.890255 -0.229336
v -37.515408 -93.018692 -55.766861
vn 0.478540 0.323975 -0.816113
v -28.247786 23.367245 -82.100029
vn 0.478540 0.323975 -0.816113
v -50.645382 57.992386 -81.487923
vn 0.478540 0.323975 -0.816113
v 21.593348 96.030632 -24.029499
vn 0.587815 0.107847 0.801775
v 38.945232 -85.840446 35.723431
vn 0.587815 0.107847 0.801775
v 14.881959 96.381248 28.854454
vn 0.587815 0.107847 0.801775
v 21.429708 -85.833115 48.563805
vn -0.178733 -0.946125 0.270004
v -21.094038 -85.893906 48.665310
vn -0.178733 -0.946125 0.270004
v -38.221283 -86.200363 36.253834
vn -0.178733 -0.946125 0.270004
v -3.495477 -93.074135 35.154621
vn -0.504734 0.111433 0.856053
v -17.824169 94.000000 27.176258
vn -0.504734 0.111433 0.856053
v -30.055405 -82.375000 42.923569
vn -0.504734 0.111433 0.856053
v -21.094038 -85.893906 48.665310
vn 0.147088 -0.968445 0.201195
v 38.945232 -85.840446 35.723431
vn 0.147088 -0.968445 0.201195
v 21.429708 -85.833115 48.563805
vn 0.147088 -0.968445 0.201195
v 36.304920 -93.094986 2.734250
vn 0.154270 -0.919286 -0.362098
v -37.515408 -93.018692 -55.766861
vn 0.154270 -0.919286 -0.362098
v 15.213998 -86.361710 -50.202312
vn 0.154270 -0.919286 -0.362098
v 37.664192 -87.774330 -37.051163
vn 0.356365 -0.185177 -0.915813
v -21.949158 -0.104616 -82.104591
vn 0.356365 -0.185177 -0.915813
v 15.213998 -86.361710 -50.202312
vn 0.356365 -0.185177 -0.915813
v -50.651203 -56.762802 -81.816978
vn -0.002167 -0.584022 -0.811735
v -50.651203 -56.762802 -81.816978
vn -0.002167 -0.584022 -0.811735
v -37.515408 -93.018692 -55.766861
vn -0.002167 -0.584022 -0.811735
v -103.395035 -57.328949 -81.268867
vn 0.399845 -0.911740 0.094096
v 36.304920 -93.094986 2.734250
vn 0.399845 -0.911740 0.094096
v 53.051640 -85.774574 2.502870
vn 0.399845 -0.911740 0.094096
v 47.949223 -85.997208 22.027496
vn 0.168401 -0.963662 0.207355
v 36.304920 -93.094986 2.734250
vn 0.168401 -0.963662 0.207355
v 21.429708 -85.833115 48.563805
vn 0.168401 -0.963662 0.207355
v -3.495477 -93.074135 35.154621
vn 0.977949 0.109780 -0.177661
v 30.419926 94.000000 -10.989664
vn 0.977949 0.109780 -0.177661
v 32.481510 95.917648 1.543447
vn 0.977949 0.109780 -0.177661
v 53.051640 -85.774574 2.502870
vn 0.657331 0.114879 0.744795
v 27.577673 96.074013 17.697039
vn 0.657331 0.114879 0.744795
v 14.881959 96.381248 28.854454
vn 0.657331 0.114879 0.744795
v 38.945232 -85.840446 35.723431
vn 0.831448 0.106001 0.545398
v 27.577673 96.074013 17.697039
vn 0.831448 0.106001 0.545398
v 38.945232 -85.840446 35.723431
vn 0.831448 0.106001 0.545398
v 47.949223 -85.997208 22.027496
vn 0.632629 0.169912 -0.755586
v 21.593348 96.030632 -24.029499
vn 0.632629 0.169912 -0.755586
v -21.949158 -0.104616 -82.104591
vn 0.632629 0.169912 -0.755586
v -28.247786 23.367245 -82.100029
vn -0.576961 -0.163606 0.800218
v -21.094038 -85.893906 48.665310
vn -0.576961 -0.163606 0.800218
v -30.055405 -82.375000 42.923569
vn -0.576961 -0.163606 0.800218
v -38.221283 -86.200363 36.253834
vn 0.287608 0.113204 0.951034
v 14.881959 96.381248 28.854454
vn 0.287608 0.113204 0.951034
v 5.317072 94.000000 32.030479
vn 0.287608 0.113204 0.951034
v 21.429708 -85.833115 48.563805
vn -0.026493 0.997987 -0.057627
v 27.577673 96.074013 17.697039
vn -0.026493 0.997987 -0.057627
v -6.333909 96.000473 32.013786
vn -0.026493 0.997987 -0.057627
v 14.881959 96.381248 28.854454
vn 0.104960 0.617802 0.779298
v 14.881959 96.381248 28.854454
vn 0.104960 0.617802 0.779298
v -6.333909 96.000473 32.013786
vn 0.104960 0.617802 0.779298
v 5.317072 94.000000 32.030479
vn -0.178056 -0.943966 0.277891
v -38.221283 -86.200363 36.253834
vn -0.178056 -0.943966 0.277891
v -66.901276 -93.027016 -5.312027
vn -0.178056 -0.943966 0.277891
v -3.495477 -93.074135 35.154621
vn 0.698056 0.111147 -0.707364
v -21.949158 -0.104616 -82.104591
vn 0.698056 0.111147 -0.707364
v 21.593348 96.030632 -24.029499
vn 0.698056 0.111147 -0.707364
v 37.664192 -87.774330 -37.051163
vn 0.497836 -0.103960 -0.861018
v 15.213998 -86.361710 -50.202312
vn 0.497836 -0.103960 -0.861018
v -21.949158 -0.104616 -82.104591
vn 0.497836 -0.103960 -0.861018
v 37.664192 -87.774330 -37.051163
vn 0.155392 -0.538670 -0.828063
v -50.651203 -56.762802 -81.816978
vn 0.155392 -0.538670 -0.828063
v 15.213998 -86.361710 -50.202312
vn 0.155392 -0.538670 -0.828063
v -37.515408 -93.018692 -55.766861
vn -0.771014 0.635876 0.034620
v -134.693451 17.585184 -63.327038
vn -0.771014 0.635876 0.034620
v -67.423134 96.010849 -5.633658
vn -0.771014 0.635876 0.034620
v -103.683212 56.104477 -80.200981
vn -0.008368 -0.173780 -0.984749
v -103.395035 -57.328949 -81.268867
vn -0.008368 -0.173780 -0.984749
v -133.047440 -19.415249 -87.707581
vn -0.008368 -0.173780 -0.984749
v -50.651203 -56.762802 -81.816978
vn 0.056149 -0.033510 -0.997860
v -133.047440 -19.415249 -87.707581
vn 0.056149 -0.033510 -0.997860
v -21.949158 -0.104616 -82.104591
vn 0.056149 -0.033510 -0.997860
v -50.651203 -56.762802 -81.816978
vn 0.267243 -0.945407 0.186512
v 36.304920 -93.094986 2.734250
vn 0.267243 -0.945407 0.186512
v 47.949223 -85.997208 22.027496
vn 0.267243 -0.945407 0.186512
v 38.945232 -85.840446 35.723431
vn 0.960936 0.113521 0.252418
v 27.577673 96.074013 17.697039
vn 0.960936 0.113521 0.252418
v 47.949223 -85.997208 22.027496
vn 0.960936 0.113521 0.252418
v 53.051640 -85.774574 2.502870
vn 0.951447 0.109237 0.287779
v 53.051640 -85.774574 2.502870
vn 0.951447 0.109237 0.287779
v 32.481510 95.917648 1.543447
vn 0.951447 0.109237 0.287779
v 27.577673 96.074013 17.697039
vn 0.978739 0.110231 -0.172970
v 49.200676 -85.742012 -19.266752
vn 0.978739 0.110231 -0.172970
v 30.419926 94.000000 -10.989664
vn 0.978739 0.110231 -0.172970
v 53.051640 -85.774574 2.502870
vn 0.442961 0.383138 -0.810549
v -38.128784 96.045776 -56.660210
vn 0.442961 0.383138 -0.810549
v 21.593348 96.030632 -24.029499
vn 0.442961 0.383138 -0.810549
v -50.645382 57.992386 -81.487923
vn -0.214192 0.106271 0.970993
v -6.333909 96.000473 32.013786
vn -0.214192 0.106271 0.970993
v -21.094038 -85.893906 48.665310
vn -0.214192 0.106271 0.970993
v -1.659965 -85.614250 52.921673
vn 0.018290 0.114812 0.993219
v -6.333909 96.000473 32.013786
vn 0.018290 0.114812 0.993219
v -1.659965 -85.614250 52.921673
vn 0.018290 0.114812 0.993219
v 5.317072 94.000000 32.030479
vn 0.063128 -0.922496 0.380809
v -1.659965 -85.614250 52.921673
vn 0.063128 -0.922496 0.380809
v -3.495477 -93.074135 35.154621
vn 0.063128 -0.922496 0.380809
v 21.429708 -85.833115 48.563805
vn -0.816353 0.380777 0.434255
v -67.423134 96.010849 -5.633658
vn -0.816353 0.380777 0.434255
v -134.693451 17.585184 -63.327038
vn -0.816353 0.380777 0.434255
v -119.890831 20.539576 -38.090275
vn 0.339180 -0.933873 -0.113302
v 37.664192 -87.774330 -37.051163
vn 0.339180 -0.933873 -0.113302
v 49.200676 -85.742012 -19.266752
vn 0.339180 -0.933873 -0.113302
v 36.304920 -93.094986 2.734250
vn -0.031719 0.227689 -0.973217
v -50.645382 57.992386 -81.487923
vn -0.031719 0.227689 -0.973217
v -132.917496 19.770834 -87.748604
vn -0.031719 0.227689 -0.973217
v -103.683212 56.104477 -80.200981
vn -0.039920 0.555168 -0.830780
v -50.645382 57.992386 -81.487923
vn -0.039920 0.555168 -0.830780
v -103.683212 56.104477 -80.200981
vn -0.039920 0.555168 -0.830780
v -38.128784 96.045776 -56.660210
vn -0.761805 -0.298899 0.574728
v -122.257683 -9.836575 -35.422440
vn -0.761805 -0.298899 0.574728
v -66.901276 -93.027016 -5.312027
vn -0.761805 -0.298899 0.574728
v -38.221283 -86.200363 36.253834
vn 0.100809 -0.986573 -0.128494
v 37.664192 -87.774330 -37.051163
vn 0.100809 -0.986573 -0.128494
v 36.304920 -93.094986 2.734250
vn 0.100809 -0.986573 -0.128494
v -37.515408 -93.018692 -55.766861
vn 0.398660 -0.914277 -0.071889
v 36.304920 -93.094986 2.734250
vn 0.398660 -0.914277 -0.071889
v 49.200676 -85.742012 -19.266752
vn 0.398660 -0.914277 -0.071889
v 53.051640 -85.774574 2.502870
vn 0.827875 0.111332 -0.549753
v 21.593348 96.030632 -24.029499
vn 0.827875 0.111332 -0.549753
v 49.200676 -85.742012 -19.266752
vn 0.827875 0.111332 -0.549753
v 37.664192 -87.774330 -37.051163
vn 0.830922 0.111919 -0.545017
v 21.593348 96.030632 -24.029499
vn 0.830922 0.111919 -0.545017
v 30.419926 94.000000 -10.989664
vn 0.830922 0.111919 -0.545017
v 49.200676 -85.742012 -19.266752
vn -0.763243 -0.597164 -0.246689
v -66.901276 -93.027016 -5.312027
vn -0.763243 -0.597164 -0.246689
v -122.257683 -9.836575 -35.422440
vn -0.763243 -0.597164 -0.246689
v -134.693451 17.585184 -63.327038
vn 0.053384 0.014520 -0.998468
v -132.917496 19.770834 -87.748604
vn 0.053384 0.014520 -0.998468
v -28.247786 23.367245 -82.100029
vn 0.053384 0.014520 -0.998468
v -21.949158 -0.104616 -82.104591
vn -0.592746 0.093578 0.799935
v -122.094337 6.782547 -35.706482
vn -0.592746 0.093578 0.799935
v -30.055405 -82.375000 42.923569
vn -0.592746 0.093578 0.799935
v -67.423134 96.010849 -5.633658
vn -0.072767 -0.916874 0.392487
v -3.495477 -93.074135 35.154621
vn -0.072767 -0.916874 0.392487
v -1.659965 -85.614250 52.921673
vn -0.072767 -0.916874 0.392487
v -21.094038 -85.893906 48.665310
vn 0.052059 0.051305 -0.997325
v -28.247786 23.367245 -82.100029
vn 0.052059 0.051305 -0.997325
v -132.917496 19.770834 -87.748604
vn 0.052059 0.051305 -0.997325
v -50.645382 57.992386 -81.487923
vn -0.638117 0.020197 0.769674
v -122.257683 -9.836575 -35.422440
vn -0.638117 0.020197 0.769674
v -38.221283 -86.200363 36.253834
vn -0.638117 0.020197 0.769674
v -30.055405 -82.375000 42.923569
vn -0.638483 0.019425 0.769391
v -122.257683 -9.836575 -35.422440
vn -0.638483 0.019425 0.769391
v -30.055405 -82.375000 42.923569
vn -0.638483 0.019425 0.769391
v -122.094337 6.782547 -35.706482
vn 0.504453 0.837241 -0.211081
v 21.593348 96.030632 -24.029499
vn 0.504453 0.837241 -0.211081
v 32.481510 95.917648 1.543447
vn 0.504453 0.837241 -0.211081
v 30.419926 94.000000 -10.989664
vn -0.436692 0.864143 -0.250114
v -38.128784 96.045776 -56.660210
vn -0.436692 0.864143 -0.250114
v -103.683212 56.104477 -80.200981
vn -0.436692 0.864143 -0.250114
v -67.423134 96.010849 -5.633658
vn -0.728379 0.228590 0.645919
v -119.890831 20.539576 -38.090275
vn -0.728379 0.228590 0.645919
v -122.094337 6.782547 -35.706482
vn -0.728379 0.228590 0.645919
v -67.423134 96.010849 -5.633658
vn -0.720445 -0.004772 -0.693495
v -119.890831 20.539576 -38.090275
vn -0.720445 -0.004772 -0.693495
v -122.257683 -9.836575 -35.422440
vn -0.720445 -0.004772 -0.693495
v -122.094337 6.782547 -35.706482
vn -0.862876 0.110548 0.493178
v -119.890831 20.539576 -38.090275
vn -0.862876 0.110548 0.493178
v -134.693451 17.585184 -63.327038
vn -0.862876 0.110548 0.493178
v -122.257683 -9.836575 -35.422440
vn -0.779060 0.626949 -0.000544
v -103.683212 56.104477 -80.200981
vn -0.779060 0.626949 -0.000544
v -132.917496 19.770834 -87.748604
vn -0.779060 0.626949 -0.000544
v -134.693451 17.585184 -63.327038
vn -0.791912 -0.602858 0.097147
v -66.901276 -93.027016 -5.312027
vn -0.791912 -0.602858 0.097147
v -133.047440 -19.415249 -87.707581
vn -0.791912 -0.602858 0.097147
v -103.395035 -57.328949 -81.268867
vn -0.857182 -0.309416 0.411705
v -133.047440 -19.415249 -87.707581
vn -0.857182 -0.309416 0.411705
v -66.901276 -93.027016 -5.312027
vn -0.857182 -0.309416 0.411705
v -134.693451 17.585184 -63.327038
vn 0.050579 -0.001213 -0.998719
v -133.047440 -19.415249 -87.707581
vn 0.050579 -0.001213 -0.998719
v -132.917496 19.770834 -87.748604
vn 0.050579 -0.001213 -0.998719
v -21.949158 -0.104616 -82.104591
vn -0.997382 0.003232 -0.072241
v -132.917496 19.770834 -87.748604
vn -0.997382 0.003232 -0.072241
v -133.047440 -19.415249 -87.707581
vn -0.997382 0.003232 -0.072241
v -134.693451 17.585184 -63.327038
vn 0.019326 0.999806 -0.003811
v 21.593348 96.030632 -24.029499
vn 0.019326 0.999806 -0.003811
v 27.577673 96.074013 17.697039
vn 0.019326 0.999806 -0.003811
v 32.481510 95.917648 1.543447
vn -0.000092 1.000000 0.000632
v -38.128784 96.045776 -56.660210
vn -0.000092 1.000000 0.000632
v -67.423134 96.010849 -5.633658
vn -0.000092 1.000000 0.000632
v 21.593348 96.030632 -24.029499
vn -0.000124 1.000000 0.000476
v -67.423134 96.010849 -5.633658
vn -0.000124 1.000000 0.000476
v -6.333909 96.000473 32.013786
vn -0.000124 1.000000 0.000476
v 21.593348 96.030632 -24.029499
vn -0.002459 0.999997 -0.000687
v 21.593348 96.030632 -24.029499
vn -0.002459 0.999997 -0.000687
v -6.333909 96.000473 32.013786
vn -0.002459 0.999997 -0.000687
v 27.577673 96.074013 17.697039
vn -0.000647 -1.000000 -0.000151
v -66.901276 -93.027016 -5.312027
vn -0.000647 -1.000000 -0.000151
v 36.304920 -93.094986 2.734250
vn -0.000647 -1.000000 -0.000151
v -3.495477 -93.074135 35.154621
vn -0.000618 -1.000000 -0.000525
v -66.901276 -93.027016 -5.312027
vn -0.000618 -1.000000 -0.000525
v -37.515408 -93.018692 -55.766861
vn -0.000618 -1.000000 -0.000525
v 36.304920 -93.094986 2.734250
# 210 vertices, 0 vertices normals

f 1//1 2//2 3//3
f 4//4 5//5 6//6
f 7//7 8//8 9//9
f 10//10 11//11 12//12
f 13//13 14//14 15//15
f 16//16 17//17 18//18
f 19//19 20//20 21//21
f 22//22 23//23 24//24
f 25//25 26//26 27//27
f 28//28 29//29 30//30
f 31//31 32//32 33//33
f 34//34 35//35 36//36
f 37//37 38//38 39//39
f 40//40 41//41 42//42
f 43//43 44//44 45//45
f 46//46 47//47 48//48
f 49//49 50//50 51//51
f 52//52 53//53 54//54
f 55//55 56//56 57//57
f 58//58 59//59 60//60
f 61//61 62//62 63//63
f 64//64 65//65 66//66
f 67//67 68//68 69//69
f 70//70 71//71 72//72
f 73//73 74//74 75//75
f 76//76 77//77 78//78
f 79//79 80//80 81//81
f 82//82 83//83 84//84
f 85//85 86//86 87//87
f 88//88 89//89 90//90
f 91//91 92//92 93//93
f 94//94 95//95 96//96
f 97//97 98//98 99//99
f 100//100 101//101 102//102
f 103//103 104//104 105//105
f 106//106 107//107 108//108
f 109//109 110//110 111//111
f 112//112 113//113 114//114
f 115//115 116//116 117//117
f 118//118 119//119 120//120
f 121//121 122//122 123//123
f 124//124 125//125 126//126
f 127//127 128//128 129//129
f 130//130 131//131 132//132
f 133//133 134//134 135//135
f 136//136 137//137 138//138
f 139//139 140//140 141//141
f 142//142 143//143 144//144
f 145//145 146//146 147//147
f 148//148 149//149 150//150
f 151//151 152//152 153//153
f 154//154 155//155 156//156
f 157//157 158//158 159//159
f 160//160 161//161 162//162
f 163//163 164//164 165//165
f 166//166 167//167 168//168
f 169//169 170//170 171//171
f 172//172 173//173 174//174
f 175//175 176//176 177//177
f 178//178 179//179 180//180
f 181//181 182//182 183//183
f 184//184 185//185 186//186
f 187//187 188//188 189//189
f 190//190 191//191 192//192
f 193//193 194//194 195//195
f 196//196 197//197 198//198
f 199//199 200//200 201//201
f 202//202 203//203 204//204
f 205//205 206//206 207//207
f 208//208 209//209 210//210
# 70 faces, 0 coords texture

# End of File