####
#
# OBJ File Generated by Meshlab
#
####
# Object Foot.obj
#
# Vertices: 120
# Faces: 40
#
####
vn -0.000168 -0.995709 0.092543
v -132.147842 -56.945648 13.899014
vn -0.000168 -0.995709 0.092543
v -98.109245 -71.347633 -140.996277
vn -0.000168 -0.995709 0.092543
v 176.100510 -70.000000 -126.000000
vn 0.066655 0.929570 0.362569
v 59.471325 49.729645 -0.935893
vn 0.066655 0.929570 0.362569
v 183.462494 90.486122 -128.224075
vn 0.066655 0.929570 0.362569
v -130.741806 49.842209 33.744747
vn 0.493809 -0.659112 0.567207
v 176.100510 -70.000000 -126.000000
vn 0.493809 -0.659112 0.567207
v 199.955124 -50.515732 -124.126480
vn 0.493809 -0.659112 0.567207
v 59.512772 -49.844345 -1.077527
vn 0.037521 0.949641 0.311087
v -130.741806 49.842209 33.744747
vn 0.037521 0.949641 0.311087
v 183.462494 90.486122 -128.224075
vn 0.037521 0.949641 0.311087
v -129.000000 56.411785 13.480005
vn 0.000172 0.972199 0.234156
v -129.000000 56.411785 13.480005
vn 0.000172 0.972199 0.234156
v 183.462494 90.486122 -128.224075
vn 0.000172 0.972199 0.234156
v -96.000000 90.000000 -126.000000
vn 0.052336 -0.977049 0.206487
v 59.512772 -49.844345 -1.077527
vn 0.052336 -0.977049 0.206487
v -132.147842 -56.945648 13.899014
vn 0.052336 -0.977049 0.206487
v 176.100510 -70.000000 -126.000000
vn 0.537291 -0.575669 0.616379
v 59.512772 -49.844345 -1.077527
vn 0.537291 -0.575669 0.616379
v 199.955124 -50.515732 -124.126480
vn 0.537291 -0.575669 0.616379
v 55.765545 -21.349314 28.801899
vn 0.128642 -0.709553 0.692810
v -132.410690 -41.123436 43.490837
vn 0.128642 -0.709553 0.692810
v 59.512772 -49.844345 -1.077527
vn 0.128642 -0.709553 0.692810
v 55.765545 -21.349314 28.801899
vn 0.111176 -0.374027 0.920730
v -132.410690 -41.123436 43.490837
vn 0.111176 -0.374027 0.920730
v 55.765545 -21.349314 28.801899
vn 0.111176 -0.374027 0.920730
v -130.262589 5.327504 62.101158
vn -0.776901 -0.540337 -0.323204
v -142.014801 -36.820034 -93.181953
vn -0.776901 -0.540337 -0.323204
v -106.000000 -60.000000 -141.000000
vn -0.776901 -0.540337 -0.323204
v -98.109245 -71.347633 -140.996277
vn 0.069379 -0.879477 0.470857
v -132.410690 -41.123436 43.490837
vn 0.069379 -0.879477 0.470857
v -132.147842 -56.945648 13.899014
vn 0.069379 -0.879477 0.470857
v 59.512772 -49.844345 -1.077527
vn 0.710704 -0.120556 0.693085
v 199.955124 -50.515732 -124.126480
vn 0.710704 -0.120556 0.693085
v 54.806728 13.809904 35.900738
vn 0.710704 -0.120556 0.693085
v 55.765545 -21.349314 28.801899
vn 0.094258 0.535594 0.839198
v 54.806728 13.809904 35.900738
vn 0.094258 0.535594 0.839198
v -130.741806 49.842209 33.744747
vn 0.094258 0.535594 0.839198
v -130.262589 5.327504 62.101158
vn 0.740684 -0.000088 0.671853
v 199.832550 69.951584 -123.975494
vn 0.740684 -0.000088 0.671853
v 54.806728 13.809904 35.900738
vn 0.740684 -0.000088 0.671853
v 199.955124 -50.515732 -124.126480
vn -0.727583 0.648614 0.223433
v -108.381889 80.188202 -137.837036
vn -0.727583 0.648614 0.223433
v -96.000000 90.000000 -126.000000
vn -0.727583 0.648614 0.223433
v -100.597343 90.001793 -140.975906
vn -0.640133 0.767539 0.033380
v -96.000000 90.000000 -126.000000
vn -0.640133 0.767539 0.033380
v -108.381889 80.188202 -137.837036
vn -0.640133 0.767539 0.033380
v -129.000000 56.411785 13.480005
vn 0.146186 -0.191954 0.970455
v 54.806728 13.809904 35.900738
vn 0.146186 -0.191954 0.970455
v -130.262589 5.327504 62.101158
vn 0.146186 -0.191954 0.970455
v 55.765545 -21.349314 28.801899
vn 0.128162 0.701896 0.700654
v -130.741806 49.842209 33.744747
vn 0.128162 0.701896 0.700654
v 54.806728 13.809904 35.900738
vn 0.128162 0.701896 0.700654
v 59.471325 49.729645 -0.935893
vn 0.515268 0.547234 0.659571
v 54.806728 13.809904 35.900738
vn 0.515268 0.547234 0.659571
v 199.832550 69.951584 -123.975494
vn 0.515268 0.547234 0.659571
v 183.462494 90.486122 -128.224075
vn -0.965724 0.246175 -0.082311
v -142.014801 -36.820034 -93.181953
vn -0.965724 0.246175 -0.082311
v -130.741806 49.842209 33.744747
vn -0.965724 0.246175 -0.082311
v -108.381889 80.188202 -137.837036
vn -0.997256 0.031838 0.066833
v -142.014801 -36.820034 -93.181953
vn -0.997256 0.031838 0.066833
v -130.262589 5.327504 62.101158
vn -0.997256 0.031838 0.066833
v -130.741806 49.842209 33.744747
vn -0.943071 -0.283982 -0.173123
v -130.741806 49.842209 33.744747
vn -0.943071 -0.283982 -0.173123
v -129.000000 56.411785 13.480005
vn -0.943071 -0.283982 -0.173123
v -108.381889 80.188202 -137.837036
vn -0.667227 -0.740785 -0.077747
v -132.147842 -56.945648 13.899014
vn -0.667227 -0.740785 -0.077747
v -142.014801 -36.820034 -93.181953
vn -0.667227 -0.740785 -0.077747
v -98.109245 -71.347633 -140.996277
vn 0.466142 0.603191 0.647204
v 183.462494 90.486122 -128.224075
vn 0.466142 0.603191 0.647204
v 59.471325 49.729645 -0.935893
vn 0.466142 0.603191 0.647204
v 54.806728 13.809904 35.900738
vn -0.995738 -0.035684 0.085045
v -142.014801 -36.820034 -93.181953
vn -0.995738 -0.035684 0.085045
v -132.147842 -56.945648 13.899014
vn -0.995738 -0.035684 0.085045
v -130.262589 5.327504 62.101158
vn -0.997090 0.063196 -0.042646
v -130.262589 5.327504 62.101158
vn -0.997090 0.063196 -0.042646
v -132.147842 -56.945648 13.899014
vn -0.997090 0.063196 -0.042646
v -132.410690 -41.123436 43.490837
vn 0.004915 -0.999988 0.000000
v 176.100510 -70.000000 -141.000000
vn 0.004915 -0.999988 0.000000
v 176.100510 -70.000000 -126.000000
vn 0.004915 -0.999988 0.000000
v -98.109245 -71.347633 -140.996277
vn 0.999988 0.003481 0.003570
v 200.000000 -46.100506 -141.000000
vn 0.999988 0.003481 0.003570
v 199.526901 89.800125 -141.000000
vn 0.999988 0.003481 0.003570
v 199.955124 -50.515732 -124.126480
vn 0.999859 0.001038 -0.016740
v 199.526901 89.800125 -141.000000
vn 0.999859 0.001038 -0.016740
v 199.832550 69.951584 -123.975494
vn 0.999859 0.001038 -0.016740
v 199.955124 -50.515732 -124.126480
vn -0.798785 0.000002 -0.601617
v -142.014801 -36.820034 -93.181953
vn -0.798785 0.000002 -0.601617
v -108.381889 80.188202 -137.837036
vn -0.798785 0.000002 -0.601617
v -106.000000 -60.000000 -141.000000
vn 0.000667 0.998606 -0.052781
v 199.526901 89.800125 -141.000000
vn 0.000667 0.998606 -0.052781
v -100.597343 90.001793 -140.975906
vn 0.000667 0.998606 -0.052781
v 183.462494 90.486122 -128.224075
vn -0.001734 0.999998 0.000652
v -100.597343 90.001793 -140.975906
vn -0.001734 0.999998 0.000652
v -96.000000 90.000000 -126.000000
vn -0.001734 0.999998 0.000652
v 183.462494 90.486122 -128.224075
vn 0.632593 -0.774484 0.000000
v 176.100510 -70.000000 -141.000000
vn 0.632593 -0.774484 0.000000
v 199.955124 -50.515732 -124.126480
vn 0.632593 -0.774484 0.000000
v 176.100510 -70.000000 -126.000000
vn 0.695538 -0.695538 -0.180149
v 176.100510 -70.000000 -141.000000
vn 0.695538 -0.695538 -0.180149
v 200.000000 -46.100506 -141.000000
vn 0.695538 -0.695538 -0.180149
v 199.955124 -50.515732 -124.126480
vn -0.389236 0.014167 -0.921029
v -106.000000 -60.000000 -141.000000
vn -0.389236 0.014167 -0.921029
v -108.381889 80.188202 -137.837036
vn -0.389236 0.014167 -0.921029
v -100.597343 90.001793 -140.975906
vn -0.000014 0.000126 -1.000000
v -100.597343 90.001793 -140.975906
vn -0.000014 0.000126 -1.000000
v 176.100510 -70.000000 -141.000000
vn -0.000014 0.000126 -1.000000
v -98.109245 -71.347633 -140.996277
vn -0.000080 -0.000000 -1.000000
v -100.597343 90.001793 -140.975906
vn -0.000080 -0.000000 -1.000000
v 199.526901 89.800125 -141.000000
vn -0.000080 -0.000000 -1.000000
v 200.000000 -46.100506 -141.000000
vn -0.000055 0.000055 -1.000000
v 176.100510 -70.000000 -141.000000
vn -0.000055 0.000055 -1.000000
v -100.597343 90.001793 -140.975906
vn -0.000055 0.000055 -1.000000
v 200.000000 -46.100506 -141.000000
vn 0.000668 0.000137 -1.000000
v -98.109245 -71.347633 -140.996277
vn 0.000668 0.000137 -1.000000
v -106.000000 -60.000000 -141.000000
vn 0.000668 0.000137 -1.000000
v -100.597343 90.001793 -140.975906
vn 0.531753 0.556072 0.638767
v 183.462494 90.486122 -128.224075
vn 0.531753 0.556072 0.638767
v 199.832550 69.951584 -123.975494
vn 0.531753 0.556072 0.638767
v 199.526901 89.800125 -141.000000
# 120 vertices, 0 vertices normals

f 1//1 2//2 3//3
f 4//4 5//5 6//6
f 7//7 8//8 9//9
f 10//10 11//11 12//12
f 13//13 14//14 15//15
f 16//16 17//17 18//18
f 19//19 20//20 21//21
f 22//22 23//23 24//24
f 25//25 26//26 27//27
f 28//28 29//29 30//30
f 31//31 32//32 33//33
f 34//34 35//35 36//36
f 37//37 38//38 39//39
f 40//40 41//41 42//42
f 43//43 44//44 45//45
f 46//46 47//47 48//48
f 49//49 50//50 51//51
f 52//52 53//53 54//54
f 55//55 56//56 57//57
f 58//58 59//59 60//60
f 61//61 62//62 63//63
f 64//64 65//65 66//66
f 67//67 68//68 69//69
f 70//70 71//71 72//72
f 73//73 74//74 75//75
f 76//76 77//77 78//78
f 79//79 80//80 81//81
f 82//82 83//83 84//84
f 85//85 86//86 87//87
f 88//88 89//89 90//90
f 91//91 92//92 93//93
f 94//94 95//95 96//96
f 97//97 98//98 99//99
f 100//100 101//101 102//102
f 103//103 104//104 105//105
f 106//106 107//107 108//108
f 109//109 110//110 111//111
f 112//112 113//113 114//114
f 115//115 116//116 117//117
f 118//118 119//119 120//120
# 40 faces, 0 coords texture

# End of File