####
#
# OBJ File Generated by Meshlab
#
####
# Object ForearmPitch.obj
#
# Vertices: 168
# Faces: 56
#
####
vn -0.781647 0.000000 0.623721
v -22.521030 -0.870001 10.853719
vn -0.781647 0.000000 0.623721
v -15.581410 -58.000000 19.550438
vn -0.781647 0.000000 0.623721
v -15.581410 56.259998 19.550438
vn -0.639470 0.768816 0.000482
v -49.556393 36.115726 -110.735428
vn -0.639470 0.768816 0.000482
v -23.439930 57.766273 4.166454
vn -0.639470 0.768816 0.000482
v -23.486500 57.758175 -44.668346
vn -0.992057 -0.000056 -0.125786
v -47.157051 13.727874 -130.737503
vn -0.992057 -0.000056 -0.125786
v -55.642735 -24.410322 -63.794838
vn -0.992057 -0.000056 -0.125786
v -55.645016 24.386368 -63.798607
vn 0.028023 0.940110 -0.339717
v 23.444921 57.759525 -44.817993
vn 0.028023 0.940110 -0.339717
v 52.966545 34.590080 -106.500305
vn 0.028023 0.940110 -0.339717
v -49.556393 36.115726 -110.735428
vn -0.001019 0.950428 -0.310942
v -49.556393 36.115726 -110.735428
vn -0.001019 0.950428 -0.310942
v -23.486500 57.758175 -44.668346
vn -0.001019 0.950428 -0.310942
v 23.444921 57.759525 -44.817993
vn -0.888363 0.038260 0.457544
v -23.439930 57.766273 4.166454
vn -0.888363 0.038260 0.457544
v -22.521030 -0.870001 10.853719
vn -0.888363 0.038260 0.457544
v -15.581410 56.259998 19.550438
vn -0.433610 0.000000 0.901100
v -15.581410 -58.000000 19.550438
vn -0.433610 0.000000 0.901100
v -5.555510 56.259998 24.374912
vn -0.433610 0.000000 0.901100
v -15.581410 56.259998 19.550438
vn 0.000314 0.000011 1.000000
v -5.555510 56.259998 24.374912
vn 0.000314 0.000011 1.000000
v 5.547916 -59.498596 24.372704
vn 0.000314 0.000011 1.000000
v 5.570824 56.259998 24.371416
vn 0.542209 0.437729 0.717218
v 15.593385 51.759998 19.540890
vn 0.542209 0.437729 0.717218
v 22.750021 57.800598 10.443882
vn 0.542209 0.437729 0.717218
v 5.570824 56.259998 24.371416
vn 0.000035 0.993933 0.109987
v 22.750021 57.800598 10.443882
vn 0.000035 0.993933 0.109987
v -5.555510 56.259998 24.374912
vn 0.000035 0.993933 0.109987
v 5.570824 56.259998 24.371416
vn -0.787057 -0.614440 0.054821
v -23.478109 -59.514774 4.533496
vn -0.787057 -0.614440 0.054821
v -55.642735 -24.410322 -63.794838
vn -0.787057 -0.614440 0.054821
v -49.480240 -36.346432 -109.102165
vn -0.910158 -0.029677 0.413197
v -23.478109 -59.514774 4.533496
vn -0.910158 -0.029677 0.413197
v -22.521030 -0.870001 10.853719
vn -0.910158 -0.029677 0.413197
v -55.642735 -24.410322 -63.794838
vn -0.990206 -0.021747 -0.137909
v -47.157051 13.727874 -130.737503
vn -0.990206 -0.021747 -0.137909
v -46.672104 -16.889280 -129.391403
vn -0.990206 -0.021747 -0.137909
v -55.642735 -24.410322 -63.794838
vn -0.061833 0.989780 0.128497
v -23.439930 57.766273 4.166454
vn -0.061833 0.989780 0.128497
v -15.581410 56.259998 19.550438
vn -0.061833 0.989780 0.128497
v -5.555510 56.259998 24.374912
vn -0.012314 0.996291 0.085158
v -23.439930 57.766273 4.166454
vn -0.012314 0.996291 0.085158
v -5.555510 56.259998 24.374912
vn -0.012314 0.996291 0.085158
v 22.750021 57.800598 10.443882
vn -0.909370 0.033041 0.414675
v -55.645016 24.386368 -63.798607
vn -0.909370 0.033041 0.414675
v -22.521030 -0.870001 10.853719
vn -0.909370 0.033041 0.414675
v -23.439930 57.766273 4.166454
vn 0.574799 0.818268 0.006620
v 54.968189 36.032776 -96.365799
vn 0.574799 0.818268 0.006620
v 23.444921 57.759525 -44.817993
vn 0.574799 0.818268 0.006620
v 22.750021 57.800598 10.443882
vn 0.319878 0.927141 -0.195161
v 23.444921 57.759525 -44.817993
vn 0.319878 0.927141 -0.195161
v 54.968189 36.032776 -96.365799
vn 0.319878 0.927141 -0.195161
v 52.966545 34.590080 -106.500305
vn 0.874544 0.425166 -0.233254
v 54.968189 36.032776 -96.365799
vn 0.874544 0.425166 -0.233254
v 54.962025 20.988129 -123.811707
vn 0.874544 0.425166 -0.233254
v 52.966545 34.590080 -106.500305
vn 0.073022 -0.442184 -0.893947
v -46.672104 -16.889280 -129.391403
vn 0.073022 -0.442184 -0.893947
v 54.954254 -0.001202 -129.443634
vn 0.073022 -0.442184 -0.893947
v 54.967503 -31.300186 -113.960754
vn -0.001856 -0.934274 -0.356550
v -23.500984 -59.497002 -48.575459
vn -0.001856 -0.934274 -0.356550
v -49.480240 -36.346432 -109.102165
vn -0.001856 -0.934274 -0.356550
v 23.482262 -59.488483 -48.842331
vn -0.883011 -0.036023 0.467967
v -23.478109 -59.514774 4.533496
vn -0.883011 -0.036023 0.467967
v -15.581410 -58.000000 19.550438
vn -0.883011 -0.036023 0.467967
v -22.521030 -0.870001 10.853719
vn 0.577712 -0.389800 0.717150
v 15.593385 -53.500000 19.540890
vn 0.577712 -0.389800 0.717150
v 5.547916 -59.498596 24.372704
vn 0.577712 -0.389800 0.717150
v 22.750149 -59.638107 10.439327
vn -0.665340 -0.746540 0.000037
v -49.480240 -36.346432 -109.102165
vn -0.665340 -0.746540 0.000037
v -23.500984 -59.497002 -48.575459
vn -0.665340 -0.746540 0.000037
v -23.478109 -59.514774 4.533496
vn 0.026578 -0.922005 -0.386265
v 54.967503 -31.300186 -113.960754
vn 0.026578 -0.922005 -0.386265
v 23.482262 -59.488483 -48.842331
vn 0.026578 -0.922005 -0.386265
v -49.480240 -36.346432 -109.102165
vn -0.990806 0.001937 -0.135275
v -46.672104 -16.889280 -129.391403
vn -0.990806 0.001937 -0.135275
v -49.480240 -36.346432 -109.102165
vn -0.990806 0.001937 -0.135275
v -55.642735 -24.410322 -63.794838
vn 0.006768 -0.043815 -0.999017
v -46.672104 -16.889280 -129.391403
vn 0.006768 -0.043815 -0.999017
v -47.157051 13.727874 -130.737503
vn 0.006768 -0.043815 -0.999017
v 54.954254 -0.001202 -129.443634
vn 0.047028 0.258853 -0.964771
v -47.157051 13.727874 -130.737503
vn 0.047028 0.258853 -0.964771
v 54.962025 20.988129 -123.811707
vn 0.047028 0.258853 -0.964771
v 54.954254 -0.001202 -129.443634
vn 1.000000 -0.000016 -0.000348
v 54.983585 -32.002949 -49.015434
vn 1.000000 -0.000016 -0.000348
v 54.968189 36.032776 -96.365799
vn 1.000000 -0.000016 -0.000348
v 54.984604 32.000000 -49.017277
vn 0.690071 0.721151 0.061183
v 54.984604 32.000000 -49.017277
vn 0.690071 0.721151 0.061183
v 54.968189 36.032776 -96.365799
vn 0.690071 0.721151 0.061183
v 22.750021 57.800598 10.443882
vn -0.991890 0.007074 -0.126900
v -47.157051 13.727874 -130.737503
vn -0.991890 0.007074 -0.126900
v -55.645016 24.386368 -63.798607
vn -0.991890 0.007074 -0.126900
v -49.556393 36.115726 -110.735428
vn -0.774088 0.630493 0.057144
v -49.556393 36.115726 -110.735428
vn -0.774088 0.630493 0.057144
v -55.645016 24.386368 -63.798607
vn -0.774088 0.630493 0.057144
v -23.439930 57.766273 4.166454
vn 0.708902 -0.702951 0.057593
v 54.983585 -32.002949 -49.015434
vn 0.708902 -0.702951 0.057593
v 22.750149 -59.638107 10.439327
vn 0.708902 -0.702951 0.057593
v 54.824257 -36.045376 -96.394089
vn 0.604244 -0.796780 0.005451
v 54.824257 -36.045376 -96.394089
vn 0.604244 -0.796780 0.005451
v 22.750149 -59.638107 10.439327
vn 0.604244 -0.796780 0.005451
v 23.482262 -59.488483 -48.842331
vn 0.314035 -0.917202 -0.245198
v 54.967503 -31.300186 -113.960754
vn 0.314035 -0.917202 -0.245198
v 54.824257 -36.045376 -96.394089
vn 0.314035 -0.917202 -0.245198
v 23.482262 -59.488483 -48.842331
vn 0.037119 0.787848 -0.614751
v 54.962025 20.988129 -123.811707
vn 0.037119 0.787848 -0.614751
v -49.556393 36.115726 -110.735428
vn 0.037119 0.787848 -0.614751
v 52.966545 34.590080 -106.500305
vn 0.003183 0.666442 -0.745551
v -49.556393 36.115726 -110.735428
vn 0.003183 0.666442 -0.745551
v 54.962025 20.988129 -123.811707
vn 0.003183 0.666442 -0.745551
v -47.157051 13.727874 -130.737503
vn -0.104885 -0.982448 0.154255
v 5.547916 -59.498596 24.372704
vn -0.104885 -0.982448 0.154255
v -15.581410 -58.000000 19.550438
vn -0.104885 -0.982448 0.154255
v -23.478109 -59.514774 4.533496
vn 1.000000 0.000057 -0.000256
v 54.967503 -31.300186 -113.960754
vn 1.000000 0.000057 -0.000256
v 54.962025 20.988129 -123.811707
vn 1.000000 0.000057 -0.000256
v 54.968189 36.032776 -96.365799
vn 0.999999 -0.000091 -0.001040
v 54.954254 -0.001202 -129.443634
vn 0.999999 -0.000091 -0.001040
v 54.962025 20.988129 -123.811707
vn 0.999999 -0.000091 -0.001040
v 54.967503 -31.300186 -113.960754
vn 0.999993 -0.001996 -0.003193
v 54.824257 -36.045376 -96.394089
vn 0.999993 -0.001996 -0.003193
v 54.968189 36.032776 -96.365799
vn 0.999993 -0.001996 -0.003193
v 54.983585 -32.002949 -49.015434
vn 0.002692 -0.721935 -0.691955
v -46.672104 -16.889280 -129.391403
vn 0.002692 -0.721935 -0.691955
v 54.967503 -31.300186 -113.960754
vn 0.002692 -0.721935 -0.691955
v -49.480240 -36.346432 -109.102165
vn 0.999969 -0.002000 0.007614
v 54.824257 -36.045376 -96.394089
vn 0.999969 -0.002000 0.007614
v 54.967503 -31.300186 -113.960754
vn 0.999969 -0.002000 0.007614
v 54.968189 36.032776 -96.365799
vn -0.914062 -0.000011 0.405575
v -55.642735 -24.410322 -63.794838
vn -0.914062 -0.000011 0.405575
v -22.521030 -0.870001 10.853719
vn -0.914062 -0.000011 0.405575
v -55.645016 24.386368 -63.798607
vn 0.879114 -0.000000 0.476612
v 54.983585 -32.002949 -49.015434
vn 0.879114 -0.000000 0.476612
v 54.984604 32.000000 -49.017277
vn 0.879114 -0.000000 0.476612
v 22.750149 -59.638107 10.439327
vn 0.879125 -0.000018 0.476591
v 54.984604 32.000000 -49.017277
vn 0.879125 -0.000018 0.476591
v 22.750021 57.800598 10.443882
vn 0.879125 -0.000018 0.476591
v 22.750149 -59.638107 10.439327
vn 0.786078 -0.000023 0.618127
v 22.750149 -59.638107 10.439327
vn 0.786078 -0.000023 0.618127
v 22.750021 57.800598 10.443882
vn 0.786078 -0.000023 0.618127
v 15.593385 -53.500000 19.540890
vn 0.785941 0.000000 0.618302
v 22.750021 57.800598 10.443882
vn 0.785941 0.000000 0.618302
v 15.593385 51.759998 19.540890
vn 0.785941 0.000000 0.618302
v 15.593385 -53.500000 19.540890
vn 0.433496 -0.000076 0.901155
v 15.593385 -53.500000 19.540890
vn 0.433496 -0.000076 0.901155
v 5.570824 56.259998 24.371416
vn 0.433496 -0.000076 0.901155
v 5.547916 -59.498596 24.372704
vn 0.434169 0.000000 0.900831
v 15.593385 -53.500000 19.540890
vn 0.434169 0.000000 0.900831
v 15.593385 51.759998 19.540890
vn 0.434169 0.000000 0.900831
v 5.570824 56.259998 24.371416
vn -0.000721 1.000000 -0.000165
v -23.486500 57.758175 -44.668346
vn -0.000721 1.000000 -0.000165
v -23.439930 57.766273 4.166454
vn -0.000721 1.000000 -0.000165
v 22.750021 57.800598 10.443882
vn -0.000031 1.000000 -0.000744
v 22.750021 57.800598 10.443882
vn -0.000031 1.000000 -0.000744
v 23.444921 57.759525 -44.817993
vn -0.000031 1.000000 -0.000744
v -23.486500 57.758175 -44.668346
vn -0.223902 -0.021495 0.974375
v 5.547916 -59.498596 24.372704
vn -0.223902 -0.021495 0.974375
v -5.555510 56.259998 24.374912
vn -0.223902 -0.021495 0.974375
v -15.581410 -58.000000 19.550438
vn 0.000786 -1.000000 -0.000335
v -23.478109 -59.514774 4.533496
vn 0.000786 -1.000000 -0.000335
v -23.500984 -59.497002 -48.575459
vn 0.000786 -1.000000 -0.000335
v 5.547916 -59.498596 24.372704
vn 0.000181 -1.000000 -0.000094
v 5.547916 -59.498596 24.372704
vn 0.000181 -1.000000 -0.000094
v -23.500984 -59.497002 -48.575459
vn 0.000181 -1.000000 -0.000094
v 23.482262 -59.488483 -48.842331
vn -0.010256 -0.999944 -0.002650
v 23.482262 -59.488483 -48.842331
vn -0.010256 -0.999944 -0.002650
v 22.750149 -59.638107 10.439327
vn -0.010256 -0.999944 -0.002650
v 5.547916 -59.498596 24.372704
# 168 vertices, 0 vertices normals

f 1//1 2//2 3//3
f 4//4 5//5 6//6
f 7//7 8//8 9//9
f 10//10 11//11 12//12
f 13//13 14//14 15//15
f 16//16 17//17 18//18
f 19//19 20//20 21//21
f 22//22 23//23 24//24
f 25//25 26//26 27//27
f 28//28 29//29 30//30
f 31//31 32//32 33//33
f 34//34 35//35 36//36
f 37//37 38//38 39//39
f 40//40 41//41 42//42
f 43//43 44//44 45//45
f 46//46 47//47 48//48
f 49//49 50//50 51//51
f 52//52 53//53 54//54
f 55//55 56//56 57//57
f 58//58 59//59 60//60
f 61//61 62//62 63//63
f 64//64 65//65 66//66
f 67//67 68//68 69//69
f 70//70 71//71 72//72
f 73//73 74//74 75//75
f 76//76 77//77 78//78
f 79//79 80//80 81//81
f 82//82 83//83 84//84
f 85//85 86//86 87//87
f 88//88 89//89 90//90
f 91//91 92//92 93//93
f 94//94 95//95 96//96
f 97//97 98//98 99//99
f 100//100 101//101 102//102
f 103//103 104//104 105//105
f 106//106 107//107 108//108
f 109//109 110//110 111//111
f 112//112 113//113 114//114
f 115//115 116//116 117//117
f 118//118 119//119 120//120
f 121//121 122//122 123//123
f 124//124 125//125 126//126
f 127//127 128//128 129//129
f 130//130 131//131 132//132
f 133//133 134//134 135//135
f 136//136 137//137 138//138
f 139//139 140//140 141//141
f 142//142 143//143 144//144
f 145//145 146//146 147//147
f 148//148 149//149 150//150
f 151//151 152//152 153//153
f 154//154 155//155 156//156
f 157//157 158//158 159//159
f 160//160 161//161 162//162
f 163//163 164//164 165//165
f 166//166 167//167 168//168
# 56 faces, 0 coords texture

# End of File