####
#
# OBJ File Generated by Meshlab
#
####
# Object KneePitch.obj
#
# Vertices: 180
# Faces: 60
#
####
vn -0.983699 -0.000000 -0.179821
v -37.153347 69.000000 -407.976776
vn -0.983699 -0.000000 -0.179821
v -37.153347 -67.000000 -407.976746
vn -0.983699 -0.000000 -0.179821
v -118.046448 75.000000 34.542744
vn 0.996404 0.073144 0.042757
v 71.752182 -45.000000 -5.959946
vn 0.996404 0.073144 0.042757
v 62.438957 80.000000 -2.761642
vn 0.996404 0.073144 0.042757
v 70.659584 -44.261368 18.238504
vn 0.986797 0.088236 0.135817
v 62.438957 80.000000 -2.761642
vn 0.986797 0.088236 0.135817
v 58.141918 80.959732 27.835529
vn 0.986797 0.088236 0.135817
v 70.659584 -44.261368 18.238504
vn 0.380257 -0.922588 -0.065085
v 30.205105 -73.944443 -425.515991
vn 0.380257 -0.922588 -0.065085
v 69.403000 -86.851105 -13.550722
vn 0.380257 -0.922588 -0.065085
v -42.955139 -127.058945 -100.047981
vn 0.995320 0.075694 -0.060066
v 71.752182 -45.000000 -5.959946
vn 0.995320 0.075694 -0.060066
v 47.738838 57.449791 -274.766724
vn 0.995320 0.075694 -0.060066
v 62.438957 80.000000 -2.761642
vn -0.083101 0.076433 0.993606
v 3.504911 -67.655487 74.274048
vn -0.083101 0.076433 0.993606
v 13.028080 80.001320 63.712093
vn -0.083101 0.076433 0.993606
v -123.835136 104.296295 50.396515
vn -0.983699 -0.000009 -0.179821
v -118.046448 75.000000 34.542744
vn -0.983699 -0.000009 -0.179821
v -118.046616 100.000000 34.542442
vn -0.983699 -0.000009 -0.179821
v -37.153347 69.000000 -407.976776
vn 0.163116 -0.958532 0.233684
v -33.222069 -85.641960 63.043358
vn 0.163116 -0.958532 0.233684
v -42.955139 -127.058945 -100.047981
vn 0.163116 -0.958532 0.233684
v 69.403000 -86.851105 -13.550722
vn 0.192492 -0.942620 0.272792
v 50.121799 -70.760330 55.655762
vn 0.192492 -0.942620 0.272792
v -33.222069 -85.641960 63.043358
vn 0.192492 -0.942620 0.272792
v 69.403000 -86.851105 -13.550722
vn 0.095162 0.994859 -0.034636
v -84.969345 102.000000 50.088650
vn 0.095162 0.994859 -0.034636
v 22.816967 74.918488 -431.640045
vn 0.095162 0.994859 -0.034636
v -93.974960 102.000000 25.345936
vn 0.996438 0.042616 -0.072773
v 71.752182 -45.000000 -5.959946
vn 0.996438 0.042616 -0.072773
v 37.864822 69.000000 -403.202393
vn 0.996438 0.042616 -0.072773
v 47.738838 57.449791 -274.766724
vn 0.996381 -0.000000 -0.084998
v 71.752182 -45.000000 -5.959946
vn 0.996381 -0.000000 -0.084998
v 37.864826 -67.000000 -403.202301
vn 0.996381 -0.000000 -0.084998
v 37.864822 69.000000 -403.202393
vn -0.853845 -0.019424 -0.520165
v -21.970490 -73.906700 -432.641327
vn -0.853845 -0.019424 -0.520165
v -37.153347 -67.000000 -407.976746
vn -0.853845 -0.019424 -0.520165
v -29.448381 74.317520 -425.901550
vn 0.072075 -0.967732 0.241454
v -42.955139 -127.058945 -100.047981
vn 0.072075 -0.967732 0.241454
v -33.222069 -85.641960 63.043358
vn 0.072075 -0.967732 0.241454
v -85.267159 -130.971344 -103.098343
vn -0.984084 -0.007279 -0.177556
v -37.153347 -67.000000 -407.976746
vn -0.984084 -0.007279 -0.177556
v -91.341156 -103.500000 -106.150238
vn -0.984084 -0.007279 -0.177556
v -118.046448 75.000000 34.542744
vn 0.022021 -0.985800 -0.166474
v -85.267159 -130.971344 -103.098343
vn 0.022021 -0.985800 -0.166474
v -21.970490 -73.906700 -432.641327
vn 0.022021 -0.985800 -0.166474
v 30.205105 -73.944443 -425.515991
vn 0.995737 -0.040897 -0.082678
v 71.752182 -45.000000 -5.959946
vn 0.995737 -0.040897 -0.082678
v 69.403000 -86.851105 -13.550722
vn 0.995737 -0.040897 -0.082678
v 37.864826 -67.000000 -403.202301
vn -0.431232 0.019260 -0.902036
v -29.448381 74.317520 -425.901550
vn -0.431232 0.019260 -0.902036
v -3.122862 74.691231 -438.478882
vn -0.431232 0.019260 -0.902036
v -21.970490 -73.906700 -432.641327
vn 0.989332 0.130715 -0.064304
v 47.738838 57.449791 -274.766724
vn 0.989332 0.130715 -0.064304
v 37.864822 69.000000 -403.202393
vn 0.989332 0.130715 -0.064304
v 62.438957 80.000000 -2.761642
vn 0.255060 -0.027104 -0.966545
v -3.122862 74.691231 -438.478882
vn 0.255060 -0.027104 -0.966545
v 22.816967 74.918488 -431.640045
vn 0.255060 -0.027104 -0.966545
v 30.205105 -73.944443 -425.515991
vn 0.617195 0.110225 0.779051
v 58.141918 80.959732 27.835529
vn 0.617195 0.110225 0.779051
v 13.028080 80.001320 63.712093
vn 0.617195 0.110225 0.779051
v 50.121799 -70.760330 55.655762
vn -0.707370 -0.661030 -0.250333
v -21.970490 -73.906700 -432.641327
vn -0.707370 -0.661030 -0.250333
v -85.267159 -130.971344 -103.098343
vn -0.707370 -0.661030 -0.250333
v -37.153347 -67.000000 -407.976746
vn 0.806196 -0.583971 -0.095004
v 37.864826 -67.000000 -403.202301
vn 0.806196 -0.583971 -0.095004
v 69.403000 -86.851105 -13.550722
vn 0.806196 -0.583971 -0.095004
v 30.205105 -73.944443 -425.515991
vn 0.006419 0.998324 -0.057521
v -93.974960 102.000000 25.345936
vn 0.006419 0.998324 -0.057521
v 22.816967 74.918488 -431.640045
vn 0.006419 0.998324 -0.057521
v -3.122862 74.691231 -438.478882
vn 0.132620 0.990857 -0.024795
v -84.969345 102.000000 50.088650
vn 0.132620 0.990857 -0.024795
v 60.492706 81.000000 -11.083164
vn 0.132620 0.990857 -0.024795
v 33.064701 74.797180 -405.667114
vn 0.097945 0.994611 -0.033999
v 33.064701 74.797180 -405.667114
vn 0.097945 0.994611 -0.033999
v 22.816967 74.918488 -431.640045
vn 0.097945 0.994611 -0.033999
v -84.969345 102.000000 50.088650
vn -0.046537 0.996614 -0.067793
v -93.974960 102.000000 25.345936
vn -0.046537 0.996614 -0.067793
v -3.122862 74.691231 -438.478882
vn -0.046537 0.996614 -0.067793
v -29.448381 74.317520 -425.901550
vn 0.861142 0.047291 0.506160
v 58.141918 80.959732 27.835529
vn 0.861142 0.047291 0.506160
v 50.121799 -70.760330 55.655762
vn 0.861142 0.047291 0.506160
v 70.659584 -44.261368 18.238504
vn 0.045116 0.663480 0.746833
v -123.835136 104.296295 50.396515
vn 0.045116 0.663480 0.746833
v 13.028080 80.001320 63.712093
vn 0.045116 0.663480 0.746833
v -84.969345 102.000000 50.088650
vn 0.372996 0.042243 0.926871
v 13.028080 80.001320 63.712093
vn 0.372996 0.042243 0.926871
v 3.504911 -67.655487 74.274048
vn 0.372996 0.042243 0.926871
v 50.121799 -70.760330 55.655762
vn -0.975260 -0.207019 0.077533
v -118.046448 75.000000 34.542744
vn -0.975260 -0.207019 0.077533
v -91.341156 -103.500000 -106.150238
vn -0.975260 -0.207019 0.077533
v -85.267159 -130.971344 -103.098343
vn 0.630063 0.774645 -0.054271
v 62.438957 80.000000 -2.761642
vn 0.630063 0.774645 -0.054271
v 34.870884 73.497391 -415.632996
vn 0.630063 0.774645 -0.054271
v 60.492706 81.000000 -11.083164
vn 0.972199 -0.000000 -0.234156
v 37.864822 69.000000 -403.202393
vn 0.972199 -0.000000 -0.234156
v 37.864826 -67.000000 -403.202301
vn 0.972199 -0.000000 -0.234156
v 34.870884 73.497391 -415.632996
vn 0.946587 -0.008348 -0.322341
v 30.205105 -73.944443 -425.515991
vn 0.946587 -0.008348 -0.322341
v 34.870884 73.497391 -415.632996
vn 0.946587 -0.008348 -0.322341
v 37.864826 -67.000000 -403.202301
vn 0.191476 -0.770563 0.607922
v 50.121799 -70.760330 55.655762
vn 0.191476 -0.770563 0.607922
v 3.504911 -67.655487 74.274048
vn 0.191476 -0.770563 0.607922
v -33.222069 -85.641960 63.043358
vn -0.951987 -0.232600 -0.199041
v -37.153347 -67.000000 -407.976746
vn -0.951987 -0.232600 -0.199041
v -85.267159 -130.971344 -103.098343
vn -0.951987 -0.232600 -0.199041
v -91.341156 -103.500000 -106.150238
vn 0.101056 -0.985253 -0.138072
v -85.267159 -130.971344 -103.098343
vn 0.101056 -0.985253 -0.138072
v 30.205105 -73.944443 -425.515991
vn 0.101056 -0.985253 -0.138072
v -42.955139 -127.058945 -100.047981
vn 0.912165 -0.262081 0.315068
v 70.659584 -44.261368 18.238504
vn 0.912165 -0.262081 0.315068
v 50.121799 -70.760330 55.655762
vn 0.912165 -0.262081 0.315068
v 69.403000 -86.851105 -13.550722
vn 0.146956 0.989093 0.009900
v -84.969345 102.000000 50.088650
vn 0.146956 0.989093 0.009900
v 58.141918 80.959732 27.835529
vn 0.146956 0.989093 0.009900
v 60.492706 81.000000 -11.083164
vn 0.375144 0.926666 0.023618
v 60.492706 81.000000 -11.083164
vn 0.375144 0.926666 0.023618
v 58.141918 80.959732 27.835529
vn 0.375144 0.926666 0.023618
v 62.438957 80.000000 -2.761642
vn 0.799382 0.014964 -0.600637
v 22.816967 74.918488 -431.640045
vn 0.799382 0.014964 -0.600637
v 34.870884 73.497391 -415.632996
vn 0.799382 0.014964 -0.600637
v 30.205105 -73.944443 -425.515991
vn 0.415601 0.908522 -0.043171
v 34.870884 73.497391 -415.632996
vn 0.415601 0.908522 -0.043171
v 33.064701 74.797180 -405.667114
vn 0.415601 0.908522 -0.043171
v 60.492706 81.000000 -11.083164
vn 0.227589 0.970017 -0.085266
v 22.816967 74.918488 -431.640045
vn 0.227589 0.970017 -0.085266
v 33.064701 74.797180 -405.667114
vn 0.227589 0.970017 -0.085266
v 34.870884 73.497391 -415.632996
vn 0.178808 0.951522 0.250266
v 13.028080 80.001320 63.712093
vn 0.178808 0.951522 0.250266
v 58.141918 80.959732 27.835529
vn 0.178808 0.951522 0.250266
v -84.969345 102.000000 50.088650
vn -0.264030 -0.061871 0.962528
v -123.835136 104.296295 50.396515
vn -0.264030 -0.061871 0.962528
v -33.222069 -85.641960 63.043358
vn -0.264030 -0.061871 0.962528
v 3.504911 -67.655487 74.274048
vn 0.906072 0.417772 -0.067080
v 34.870884 73.497391 -415.632996
vn 0.906072 0.417772 -0.067080
v 62.438957 80.000000 -2.761642
vn 0.906072 0.417772 -0.067080
v 37.864822 69.000000 -403.202393
vn -0.814665 0.548829 -0.187370
v -118.046616 100.000000 34.542442
vn -0.814665 0.548829 -0.187370
v -29.448381 74.317520 -425.901550
vn -0.814665 0.548829 -0.187370
v -37.153347 69.000000 -407.976776
vn -0.918719 -0.000000 -0.394912
v -29.448381 74.317520 -425.901550
vn -0.918719 -0.000000 -0.394912
v -37.153347 -67.000000 -407.976746
vn -0.918719 -0.000000 -0.394912
v -37.153347 69.000000 -407.976776
vn -0.984939 -0.138879 -0.102996
v -118.046448 75.000000 34.542744
vn -0.984939 -0.138879 -0.102996
v -118.186928 72.000000 39.931313
vn -0.984939 -0.138879 -0.102996
v -123.835136 104.296295 50.396515
vn -0.991288 -0.102394 -0.082849
v -85.267159 -130.971344 -103.098343
vn -0.991288 -0.102394 -0.082849
v -118.186928 72.000000 39.931313
vn -0.991288 -0.102394 -0.082849
v -118.046448 75.000000 34.542744
vn -0.826069 -0.299221 0.477574
v -123.835136 104.296295 50.396515
vn -0.826069 -0.299221 0.477574
v -118.186928 72.000000 39.931313
vn -0.826069 -0.299221 0.477574
v -65.893791 -91.487991 27.951452
vn -0.921862 -0.311734 0.230202
v -85.267159 -130.971344 -103.098343
vn -0.921862 -0.311734 0.230202
v -65.893791 -91.487991 27.951452
vn -0.921862 -0.311734 0.230202
v -118.186928 72.000000 39.931313
vn -0.774821 -0.621742 -0.114411
v -123.835136 104.296295 50.396515
vn -0.774821 -0.621742 -0.114411
v -29.448381 74.317520 -425.901550
vn -0.774821 -0.621742 -0.114411
v -118.046616 100.000000 34.542442
vn 0.135057 -0.055992 -0.989255
v 30.205105 -73.944443 -425.515991
vn 0.135057 -0.055992 -0.989255
v -21.970490 -73.906700 -432.641327
vn 0.135057 -0.055992 -0.989255
v -3.122862 74.691231 -438.478882
vn -0.679256 -0.278848 0.678863
v -65.893791 -91.487991 27.951452
vn -0.679256 -0.278848 0.678863
v -33.222069 -85.641960 63.043358
vn -0.679256 -0.278848 0.678863
v -123.835136 104.296295 50.396515
vn 0.996813 -0.064473 0.046976
v 70.659584 -44.261368 18.238504
vn 0.996813 -0.064473 0.046976
v 69.403000 -86.851105 -13.550722
vn 0.996813 -0.064473 0.046976
v 71.752182 -45.000000 -5.959946
vn -0.161333 -0.938103 0.306487
v -85.267159 -130.971344 -103.098343
vn -0.161333 -0.938103 0.306487
v -33.222069 -85.641960 63.043358
vn -0.161333 -0.938103 0.306487
v -65.893791 -91.487991 27.951452
vn -0.939348 -0.000010 -0.342965
v -118.046616 100.000000 34.542442
vn -0.939348 -0.000010 -0.342965
v -118.046448 75.000000 34.542744
vn -0.939348 -0.000010 -0.342965
v -123.835136 104.296295 50.396515
vn 0.058797 0.998041 -0.021401
v -84.969345 102.000000 50.088650
vn 0.058797 0.998041 -0.021401
v -93.974960 102.000000 25.345936
vn 0.058797 0.998041 -0.021401
v -123.835136 104.296295 50.396515
vn 0.028844 0.997952 -0.057096
v -29.448381 74.317520 -425.901550
vn 0.028844 0.997952 -0.057096
v -123.835136 104.296295 50.396515
vn 0.028844 0.997952 -0.057096
v -93.974960 102.000000 25.345936
# 180 vertices, 0 vertices normals

f 1//1 2//2 3//3
f 4//4 5//5 6//6
f 7//7 8//8 9//9
f 10//10 11//11 12//12
f 13//13 14//14 15//15
f 16//16 17//17 18//18
f 19//19 20//20 21//21
f 22//22 23//23 24//24
f 25//25 26//26 27//27
f 28//28 29//29 30//30
f 31//31 32//32 33//33
f 34//34 35//35 36//36
f 37//37 38//38 39//39
f 40//40 41//41 42//42
f 43//43 44//44 45//45
f 46//46 47//47 48//48
f 49//49 50//50 51//51
f 52//52 53//53 54//54
f 55//55 56//56 57//57
f 58//58 59//59 60//60
f 61//61 62//62 63//63
f 64//64 65//65 66//66
f 67//67 68//68 69//69
f 70//70 71//71 72//72
f 73//73 74//74 75//75
f 76//76 77//77 78//78
f 79//79 80//80 81//81
f 82//82 83//83 84//84
f 85//85 86//86 87//87
f 88//88 89//89 90//90
f 91//91 92//92 93//93
f 94//94 95//95 96//96
f 97//97 98//98 99//99
f 100//100 101//101 102//102
f 103//103 104//104 105//105
f 106//106 107//107 108//108
f 109//109 110//110 111//111
f 112//112 113//113 114//114
f 115//115 116//116 117//117
f 118//118 119//119 120//120
f 121//121 122//122 123//123
f 124//124 125//125 126//126
f 127//127 128//128 129//129
f 130//130 131//131 132//132
f 133//133 134//134 135//135
f 136//136 137//137 138//138
f 139//139 140//140 141//141
f 142//142 143//143 144//144
f 145//145 146//146 147//147
f 148//148 149//149 150//150
f 151//151 152//152 153//153
f 154//154 155//155 156//156
f 157//157 158//158 159//159
f 160//160 161//161 162//162
f 163//163 164//164 165//165
f 166//166 167//167 168//168
f 169//169 170//170 171//171
f 172//172 173//173 174//174
f 175//175 176//176 177//177
f 178//178 179//179 180//180
# 60 faces, 0 coords texture

# End of File