####
#
# OBJ File Generated by Meshlab
#
####
# Object KneePitchCalf.obj
#
# Vertices: 180
# Faces: 60
#
####
vn 0.905237 0.382441 -0.185165
v 119.549576 65.000000 -36.508900
vn 0.905237 0.382441 -0.185165
v 116.714691 72.071068 -35.763493
vn 0.905237 0.382441 -0.185165
v 125.613907 73.511223 10.717669
vn 0.902819 0.382638 -0.196229
v 116.714691 72.071068 -35.763493
vn 0.902819 0.382638 -0.196229
v 119.549576 65.000000 -36.508900
vn 0.902819 0.382638 -0.196229
v 37.453857 69.000000 -406.419373
vn 0.991545 0.010949 -0.129297
v 125.613907 73.511223 10.717669
vn 0.991545 0.010949 -0.129297
v 122.506256 -65.000000 -24.843853
vn 0.991545 0.010949 -0.129297
v 119.549576 65.000000 -36.508900
vn 0.976249 0.002765 -0.216633
v 119.549576 65.000000 -36.508900
vn 0.976249 0.002765 -0.216633
v 122.506256 -65.000000 -24.843853
vn 0.976249 0.002765 -0.216633
v 37.453857 69.000000 -406.419373
vn -0.795236 -0.290150 0.532365
v -47.422798 -48.456055 82.123314
vn -0.795236 -0.290150 0.532365
v -119.893272 82.601158 45.297428
vn -0.795236 -0.290150 0.532365
v -69.960289 -85.035797 28.520584
vn -0.983639 -0.000027 -0.180152
v -118.361084 100.000000 37.230808
vn -0.983639 -0.000027 -0.180152
v -36.120461 69.000000 -411.803070
vn -0.983639 -0.000027 -0.180152
v -34.254974 -68.267807 -421.968445
vn 0.242309 0.028549 -0.969779
v 7.441133 -74.386604 -437.052856
vn 0.242309 0.028549 -0.969779
v -9.236017 74.617935 -436.833313
vn 0.242309 0.028549 -0.969779
v 27.604080 74.899010 -427.620178
vn 0.006829 0.998307 -0.057762
v 27.604080 74.899010 -427.620178
vn 0.006829 0.998307 -0.057762
v -9.236017 74.617935 -436.833313
vn 0.006829 0.998307 -0.057762
v -96.042824 103.416573 50.634331
vn 0.371967 0.922864 -0.099810
v 110.467178 75.000000 -31.964907
vn 0.371967 0.922864 -0.099810
v 125.613907 73.511223 10.717669
vn 0.371967 0.922864 -0.099810
v 116.714691 72.071068 -35.763493
vn -0.983462 0.002644 -0.181098
v -119.893272 82.601158 45.297428
vn -0.983462 0.002644 -0.181098
v -118.361084 100.000000 37.230808
vn -0.983462 0.002644 -0.181098
v -34.254974 -68.267807 -421.968445
vn -0.983974 -0.006658 -0.178188
v -119.893272 82.601158 45.297428
vn -0.983974 -0.006658 -0.178188
v -34.254974 -68.267807 -421.968445
vn -0.983974 -0.006658 -0.178188
v -90.883003 -101.000000 -108.039680
vn 0.996881 -0.002113 -0.078887
v 124.912590 -72.201599 5.757553
vn 0.996881 -0.002113 -0.078887
v 122.506256 -65.000000 -24.843853
vn 0.996881 -0.002113 -0.078887
v 125.613907 73.511223 10.717669
vn 0.976047 0.000000 -0.217559
v 37.453873 -67.000000 -406.419312
vn 0.976047 0.000000 -0.217559
v 37.453857 69.000000 -406.419373
vn 0.976047 0.000000 -0.217559
v 122.506256 -65.000000 -24.843853
vn -0.003801 0.998212 -0.059649
v -112.050644 102.000000 27.948530
vn -0.003801 0.998212 -0.059649
v -96.042824 103.416573 50.634331
vn -0.003801 0.998212 -0.059649
v -9.236017 74.617935 -436.833313
vn -0.763823 0.619048 -0.182632
v -36.120461 69.000000 -411.803070
vn -0.763823 0.619048 -0.182632
v -118.361084 100.000000 37.230808
vn -0.763823 0.619048 -0.182632
v -28.743774 74.199669 -425.029907
vn -0.482495 0.864347 -0.141782
v -112.050644 102.000000 27.948530
vn -0.482495 0.864347 -0.141782
v -28.743774 74.199669 -425.029907
vn -0.482495 0.864347 -0.141782
v -118.361084 100.000000 37.230808
vn -0.078542 0.446822 0.891168
v -96.042824 103.416573 50.634331
vn -0.078542 0.446822 0.891168
v -27.284279 35.000000 90.997627
vn -0.078542 0.446822 0.891168
v 10.947396 35.000000 94.367126
vn -0.438286 0.010190 0.898778
v -47.422798 -48.456055 82.123314
vn -0.438286 0.010190 0.898778
v -27.284279 35.000000 90.997627
vn -0.438286 0.010190 0.898778
v -119.893272 82.601158 45.297428
vn 0.742319 0.649636 -0.164120
v 27.604080 74.899010 -427.620178
vn 0.742319 0.649636 -0.164120
v 116.714691 72.071068 -35.763493
vn 0.742319 0.649636 -0.164120
v 37.453857 69.000000 -406.419373
vn 0.131554 0.991235 -0.012110
v 125.613907 73.511223 10.717669
vn 0.131554 0.991235 -0.012110
v 110.467178 75.000000 -31.964907
vn 0.131554 0.991235 -0.012110
v -96.042824 103.416573 50.634331
vn -0.930883 -0.298372 0.210789
v -84.699669 -129.835052 -99.984291
vn -0.930883 -0.298372 0.210789
v -69.960289 -85.035797 28.520584
vn -0.930883 -0.298372 0.210789
v -119.893272 82.601158 45.297428
vn -0.648639 0.636048 0.417984
v -119.893272 82.601158 45.297428
vn -0.648639 0.636048 0.417984
v -96.042824 103.416573 50.634331
vn -0.648639 0.636048 0.417984
v -112.050644 102.000000 27.948530
vn 0.789895 0.199320 0.579946
v -119.893272 82.601158 45.297428
vn 0.789895 0.199320 0.579946
v -112.050644 102.000000 27.948530
vn 0.789895 0.199320 0.579946
v -118.361084 100.000000 37.230808
vn -0.360322 0.178089 0.915670
v -119.893272 82.601158 45.297428
vn -0.360322 0.178089 0.915670
v -27.284279 35.000000 90.997627
vn -0.360322 0.178089 0.915670
v -96.042824 103.416573 50.634331
vn 0.157615 -0.978713 -0.131447
v 30.554163 -74.937256 -405.238617
vn 0.157615 -0.978713 -0.131447
v -47.289318 -128.201797 -101.988556
vn 0.157615 -0.978713 -0.131447
v 7.441133 -74.386604 -437.052856
vn -0.877036 0.023616 -0.479844
v -34.254974 -68.267807 -421.968445
vn -0.877036 0.023616 -0.479844
v -36.120461 69.000000 -411.803070
vn -0.877036 0.023616 -0.479844
v -28.743774 74.199669 -425.029907
vn -0.344781 -0.037207 -0.937945
v -9.236017 74.617935 -436.833313
vn -0.344781 -0.037207 -0.937945
v 7.441133 -74.386604 -437.052856
vn -0.344781 -0.037207 -0.937945
v -34.254974 -68.267807 -421.968445
vn -0.065590 0.995163 -0.073138
v -28.743774 74.199669 -425.029907
vn -0.065590 0.995163 -0.073138
v -112.050644 102.000000 27.948530
vn -0.065590 0.995163 -0.073138
v -9.236017 74.617935 -436.833313
vn 0.125820 0.991696 -0.026604
v -96.042824 103.416573 50.634331
vn 0.125820 0.991696 -0.026604
v 110.467178 75.000000 -31.964907
vn 0.125820 0.991696 -0.026604
v 27.604080 74.899010 -427.620178
vn 0.382631 0.920399 -0.080370
v 27.604080 74.899010 -427.620178
vn 0.382631 0.920399 -0.080370
v 110.467178 75.000000 -31.964907
vn 0.382631 0.920399 -0.080370
v 116.714691 72.071068 -35.763493
vn 0.384653 0.060915 0.921049
v 22.966326 -32.261776 93.796196
vn 0.384653 0.060915 0.921049
v 116.477135 73.265480 47.764465
vn 0.384653 0.060915 0.921049
v 10.947396 35.000000 94.367126
vn 0.140894 0.989162 0.041310
v 116.477135 73.265480 47.764465
vn 0.140894 0.989162 0.041310
v 125.613907 73.511223 10.717669
vn 0.140894 0.989162 0.041310
v -96.042824 103.416573 50.634331
vn -0.517702 0.001642 -0.855560
v -9.236017 74.617935 -436.833313
vn -0.517702 0.001642 -0.855560
v -34.254974 -68.267807 -421.968445
vn -0.517702 0.001642 -0.855560
v -28.743774 74.199669 -425.029907
vn -0.945750 -0.257978 -0.197497
v -90.883003 -101.000000 -108.039680
vn -0.945750 -0.257978 -0.197497
v -34.254974 -68.267807 -421.968445
vn -0.945750 -0.257978 -0.197497
v -84.699669 -129.835052 -99.984291
vn -0.979319 -0.196151 0.049585
v -90.883003 -101.000000 -108.039680
vn -0.979319 -0.196151 0.049585
v -84.699669 -129.835052 -99.984291
vn -0.979319 -0.196151 0.049585
v -119.893272 82.601158 45.297428
vn -0.037488 -0.471958 0.880824
v -47.422798 -48.456055 82.123314
vn -0.037488 -0.471958 0.880824
v -31.392244 -84.782059 63.341572
vn -0.037488 -0.471958 0.880824
v 22.966326 -32.261776 93.796196
vn -0.305195 -0.887790 0.344506
v -69.960289 -85.035797 28.520584
vn -0.305195 -0.887790 0.344506
v -84.699669 -129.835052 -99.984291
vn -0.305195 -0.887790 0.344506
v -31.392244 -84.782059 63.341572
vn 0.348411 -0.934362 -0.074680
v -47.289318 -128.201797 -101.988556
vn 0.348411 -0.934362 -0.074680
v 30.554163 -74.937256 -405.238617
vn 0.348411 -0.934362 -0.074680
v 110.201210 -75.000000 -32.870983
vn 0.344195 -0.936767 -0.063221
v -47.289318 -128.201797 -101.988556
vn 0.344195 -0.936767 -0.063221
v 110.201210 -75.000000 -32.870983
vn 0.344195 -0.936767 -0.063221
v 124.912590 -72.201599 5.757553
vn 0.732337 -0.660964 -0.163734
v 124.912590 -72.201599 5.757553
vn 0.732337 -0.660964 -0.163734
v 30.554163 -74.937256 -405.238617
vn 0.732337 -0.660964 -0.163734
v 37.453873 -67.000000 -406.419312
vn 0.397397 -0.913687 -0.085155
v 110.201210 -75.000000 -32.870983
vn 0.397397 -0.913687 -0.085155
v 30.554163 -74.937256 -405.238617
vn 0.397397 -0.913687 -0.085155
v 124.912590 -72.201599 5.757553
vn 0.842786 -0.505381 -0.185206
v 124.912590 -72.201599 5.757553
vn 0.842786 -0.505381 -0.185206
v 37.453873 -67.000000 -406.419312
vn 0.842786 -0.505381 -0.185206
v 122.506256 -65.000000 -24.843853
vn 0.055537 -0.967008 0.248620
v -84.699669 -129.835052 -99.984291
vn 0.055537 -0.967008 0.248620
v -47.289318 -128.201797 -101.988556
vn 0.055537 -0.967008 0.248620
v -31.392244 -84.782059 63.341572
vn 0.630832 -0.618136 -0.468998
v 30.554163 -74.937256 -405.238617
vn 0.630832 -0.618136 -0.468998
v 7.441133 -74.386604 -437.052856
vn 0.630832 -0.618136 -0.468998
v 37.453873 -67.000000 -406.419312
vn 0.057139 0.599607 0.798252
v 17.150339 80.703491 59.592930
vn 0.057139 0.599607 0.798252
v -96.042824 103.416573 50.634331
vn 0.057139 0.599607 0.798252
v 10.947396 35.000000 94.367126
vn 0.979750 -0.011520 0.199894
v 116.288223 -72.399971 48.017235
vn 0.979750 -0.011520 0.199894
v 124.912590 -72.201599 5.757553
vn 0.979750 -0.011520 0.199894
v 125.613907 73.511223 10.717669
vn 0.719700 -0.053466 -0.692223
v 7.441133 -74.386604 -437.052856
vn 0.719700 -0.053466 -0.692223
v 27.604080 74.899010 -427.620178
vn 0.719700 -0.053466 -0.692223
v 37.453873 -67.000000 -406.419312
vn 0.106061 -0.964204 0.243026
v 116.288223 -72.399971 48.017235
vn 0.106061 -0.964204 0.243026
v -31.392244 -84.782059 63.341572
vn 0.106061 -0.964204 0.243026
v -47.289318 -128.201797 -101.988556
vn 0.132158 -0.596039 0.792005
v -31.392244 -84.782059 63.341572
vn 0.132158 -0.596039 0.792005
v 116.288223 -72.399971 48.017235
vn 0.132158 -0.596039 0.792005
v 22.966326 -32.261776 93.796196
vn -0.552225 -0.562055 0.615745
v -69.960289 -85.035797 28.520584
vn -0.552225 -0.562055 0.615745
v -31.392244 -84.782059 63.341572
vn -0.552225 -0.562055 0.615745
v -47.422798 -48.456055 82.123314
vn 0.138929 0.587636 0.797109
v 116.477135 73.265480 47.764465
vn 0.138929 0.587636 0.797109
v 17.150339 80.703491 59.592930
vn 0.138929 0.587636 0.797109
v 10.947396 35.000000 94.367126
vn 0.126018 0.837650 0.531472
v 17.150339 80.703491 59.592930
vn 0.126018 0.837650 0.531472
v 116.477135 73.265480 47.764465
vn 0.126018 0.837650 0.531472
v -96.042824 103.416573 50.634331
vn 0.034925 -0.987622 -0.152919
v 7.441133 -74.386604 -437.052856
vn 0.034925 -0.987622 -0.152919
v -47.289318 -128.201797 -101.988556
vn 0.034925 -0.987622 -0.152919
v -84.699669 -129.835052 -99.984291
vn -0.217852 -0.951753 -0.216117
v -34.254974 -68.267807 -421.968445
vn -0.217852 -0.951753 -0.216117
v 7.441133 -74.386604 -437.052856
vn -0.217852 -0.951753 -0.216117
v -84.699669 -129.835052 -99.984291
vn 0.906902 -0.000000 -0.421342
v 37.453873 -67.000000 -406.419312
vn 0.906902 -0.000000 -0.421342
v 27.604080 74.899010 -427.620178
vn 0.906902 -0.000000 -0.421342
v 37.453857 69.000000 -406.419373
vn 0.279009 -0.958855 0.052439
v 116.288223 -72.399971 48.017235
vn 0.279009 -0.958855 0.052439
v -47.289318 -128.201797 -101.988556
vn 0.279009 -0.958855 0.052439
v 124.912590 -72.201599 5.757553
vn -0.087480 -0.084437 0.992581
v -47.422798 -48.456055 82.123314
vn -0.087480 -0.084437 0.992581
v 10.947396 35.000000 94.367126
vn -0.087480 -0.084437 0.992581
v -27.284279 35.000000 90.997627
vn -0.155393 -0.036147 0.987191
v -47.422798 -48.456055 82.123314
vn -0.155393 -0.036147 0.987191
v 22.966326 -32.261776 93.796196
vn -0.155393 -0.036147 0.987191
v 10.947396 35.000000 94.367126
vn 0.440754 0.000986 0.897627
v 116.477135 73.265480 47.764465
vn 0.440754 0.000986 0.897627
v 22.966326 -32.261776 93.796196
vn 0.440754 0.000986 0.897627
v 116.288223 -72.399971 48.017235
vn 0.970909 -0.000844 0.239448
v 116.288223 -72.399971 48.017235
vn 0.970909 -0.000844 0.239448
v 125.613907 73.511223 10.717669
vn 0.970909 -0.000844 0.239448
v 116.477135 73.265480 47.764465
# 180 vertices, 0 vertices normals

f 1//1 2//2 3//3
f 4//4 5//5 6//6
f 7//7 8//8 9//9
f 10//10 11//11 12//12
f 13//13 14//14 15//15
f 16//16 17//17 18//18
f 19//19 20//20 21//21
f 22//22 23//23 24//24
f 25//25 26//26 27//27
f 28//28 29//29 30//30
f 31//31 32//32 33//33
f 34//34 35//35 36//36
f 37//37 38//38 39//39
f 40//40 41//41 42//42
f 43//43 44//44 45//45
f 46//46 47//47 48//48
f 49//49 50//50 51//51
f 52//52 53//53 54//54
f 55//55 56//56 57//57
f 58//58 59//59 60//60
f 61//61 62//62 63//63
f 64//64 65//65 66//66
f 67//67 68//68 69//69
f 70//70 71//71 72//72
f 73//73 74//74 75//75
f 76//76 77//77 78//78
f 79//79 80//80 81//81
f 82//82 83//83 84//84
f 85//85 86//86 87//87
f 88//88 89//89 90//90
f 91//91 92//92 93//93
f 94//94 95//95 96//96
f 97//97 98//98 99//99
f 100//100 101//101 102//102
f 103//103 104//104 105//105
f 106//106 107//107 108//108
f 109//109 110//110 111//111
f 112//112 113//113 114//114
f 115//115 116//116 117//117
f 118//118 119//119 120//120
f 121//121 122//122 123//123
f 124//124 125//125 126//126
f 127//127 128//128 129//129
f 130//130 131//131 132//132
f 133//133 134//134 135//135
f 136//136 137//137 138//138
f 139//139 140//140 141//141
f 142//142 143//143 144//144
f 145//145 146//146 147//147
f 148//148 149//149 150//150
f 151//151 152//152 153//153
f 154//154 155//155 156//156
f 157//157 158//158 159//159
f 160//160 161//161 162//162
f 163//163 164//164 165//165
f 166//166 167//167 168//168
f 169//169 170//170 171//171
f 172//172 173//173 174//174
f 175//175 176//176 177//177
f 178//178 179//179 180//180
# 60 faces, 0 coords texture

# End of File