####
#
# OBJ File Generated by Meshlab
#
####
# Object NeckYaw.obj
#
# Vertices: 90
# Faces: 30
#
####
vn -0.454309 -0.208915 0.866001
v -0.944959 20.268278 145.196945
vn -0.454309 -0.208915 0.866001
v -22.610804 18.987383 133.521927
vn -0.454309 -0.208915 0.866001
v -9.630166 -32.880486 127.818962
vn -0.000555 -0.202856 -0.979208
v -24.612997 -29.596539 84.547554
vn -0.000555 -0.202856 -0.979208
v 0.000002 -0.000001 78.402298
vn -0.000555 -0.202856 -0.979208
v 25.486053 -29.503368 84.499863
vn 0.843653 -0.262067 0.468584
v 25.113445 17.651686 128.232071
vn 0.843653 -0.262067 0.468584
v 9.679778 -34.221096 127.008232
vn 0.843653 -0.262067 0.468584
v 29.283627 -28.205500 95.077232
vn 0.769994 -0.243015 0.589960
v 9.679778 -34.221096 127.008232
vn 0.769994 -0.243015 0.589960
v 25.113445 17.651686 128.232071
vn 0.769994 -0.243015 0.589960
v 17.175562 11.427520 136.028473
vn 0.941719 -0.064063 -0.330243
v 29.500246 29.499502 84.500816
vn 0.941719 -0.064063 -0.330243
v 29.283627 -28.205500 95.077232
vn 0.941719 -0.064063 -0.330243
v 25.486053 -29.503368 84.499863
vn 0.994469 0.015311 0.103906
v 25.113445 17.651686 128.232071
vn 0.994469 0.015311 0.103906
v 29.283627 -28.205500 95.077232
vn 0.994469 0.015311 0.103906
v 29.500246 29.499502 84.500816
vn -0.109361 -0.114078 -0.987434
v -29.500000 -24.500000 84.500000
vn -0.109361 -0.114078 -0.987434
v 0.000002 -0.000001 78.402298
vn -0.109361 -0.114078 -0.987434
v -24.612997 -29.596539 84.547554
vn -0.704729 -0.677714 -0.209907
v -29.233618 -28.110207 95.261742
vn -0.704729 -0.677714 -0.209907
v -29.500000 -24.500000 84.500000
vn -0.704729 -0.677714 -0.209907
v -24.612997 -29.596539 84.547554
vn 0.344528 -0.236114 0.908598
v 9.679778 -34.221096 127.008232
vn 0.344528 -0.236114 0.908598
v 17.175562 11.427520 136.028473
vn 0.344528 -0.236114 0.908598
v -0.944959 20.268278 145.196945
vn -0.266032 -0.963778 0.018971
v -24.612997 -29.596539 84.547554
vn -0.266032 -0.963778 0.018971
v -9.630166 -32.880486 127.818962
vn -0.266032 -0.963778 0.018971
v -29.233618 -28.110207 95.261742
vn 0.216515 -0.014715 -0.976168
v 0.000002 -0.000001 78.402298
vn 0.216515 -0.014715 -0.976168
v 29.500246 29.499502 84.500816
vn 0.216515 -0.014715 -0.976168
v 25.486053 -29.503368 84.499863
vn 0.001744 -0.993967 -0.109665
v 9.679778 -34.221096 127.008232
vn 0.001744 -0.993967 -0.109665
v -24.612997 -29.596539 84.547554
vn 0.001744 -0.993967 -0.109665
v 25.486053 -29.503368 84.499863
vn 0.304541 -0.952470 0.007532
v 25.486053 -29.503368 84.499863
vn 0.304541 -0.952470 0.007532
v 29.283627 -28.205500 95.077232
vn 0.304541 -0.952470 0.007532
v 9.679778 -34.221096 127.008232
vn 0.853351 0.475231 0.214353
v 29.500246 29.499502 84.500816
vn 0.853351 0.475231 0.214353
v 18.663307 29.499880 127.642410
vn 0.853351 0.475231 0.214353
v 25.113445 17.651686 128.232071
vn 0.537910 0.331413 0.775125
v -0.944959 20.268278 145.196945
vn 0.537910 0.331413 0.775125
v 25.113445 17.651686 128.232071
vn 0.537910 0.331413 0.775125
v 18.663307 29.499880 127.642410
vn 0.018105 -0.313399 0.949449
v -9.630166 -32.880486 127.818962
vn 0.018105 -0.313399 0.949449
v 9.679778 -34.221096 127.008232
vn 0.018105 -0.313399 0.949449
v -0.944959 20.268278 145.196945
vn -0.843145 -0.262598 0.469201
v -22.610804 18.987383 133.521927
vn -0.843145 -0.262598 0.469201
v -29.233618 -28.110207 95.261742
vn -0.843145 -0.262598 0.469201
v -9.630166 -32.880486 127.818962
vn -0.869540 0.443489 0.217297
v -18.748278 29.502182 127.518257
vn -0.869540 0.443489 0.217297
v -29.499508 29.499592 84.501236
vn -0.869540 0.443489 0.217297
v -22.610804 18.987383 133.521927
vn -0.202442 0.000024 -0.979294
v 0.000002 -0.000001 78.402298
vn -0.202442 0.000024 -0.979294
v -29.500000 -24.500000 84.500000
vn -0.202442 0.000024 -0.979294
v -29.499508 29.499592 84.501236
vn 0.541979 0.294651 0.787045
v -0.944959 20.268278 145.196945
vn 0.541979 0.294651 0.787045
v 17.175562 11.427520 136.028473
vn 0.541979 0.294651 0.787045
v 25.113445 17.651686 128.232071
vn -0.418054 0.561365 0.714213
v -18.748278 29.502182 127.518257
vn -0.418054 0.561365 0.714213
v -22.610804 18.987383 133.521927
vn -0.418054 0.561365 0.714213
v -0.944959 20.268278 145.196945
vn -0.000007 0.202458 -0.979291
v 0.000002 -0.000001 78.402298
vn -0.000007 0.202458 -0.979291
v -29.499508 29.499592 84.501236
vn -0.000007 0.202458 -0.979291
v 29.500246 29.499502 84.500816
vn -0.916566 0.344690 0.202719
v -29.499508 29.499592 84.501236
vn -0.916566 0.344690 0.202719
v -29.500000 24.500000 93.000000
vn -0.916566 0.344690 0.202719
v -22.610804 18.987383 133.521927
vn -0.985801 0.002227 0.167901
v -29.233618 -28.110207 95.261742
vn -0.985801 0.002227 0.167901
v -22.610804 18.987383 133.521927
vn -0.985801 0.002227 0.167901
v -29.500000 24.500000 93.000000
vn -0.999718 -0.004057 0.023385
v -29.233618 -28.110207 95.261742
vn -0.999718 -0.004057 0.023385
v -29.500000 24.500000 93.000000
vn -0.999718 -0.004057 0.023385
v -29.500000 -24.500000 84.500000
vn -1.000000 0.000009 -0.000053
v -29.500000 24.500000 93.000000
vn -1.000000 0.000009 -0.000053
v -29.499508 29.499592 84.501236
vn -1.000000 0.000009 -0.000053
v -29.500000 -24.500000 84.500000
vn -0.071297 -0.996155 -0.050913
v 9.679778 -34.221096 127.008232
vn -0.071297 -0.996155 -0.050913
v -9.630166 -32.880486 127.818962
vn -0.071297 -0.996155 -0.050913
v -24.612997 -29.596539 84.547554
vn 0.000062 1.000000 0.000007
v 18.663307 29.499880 127.642410
vn 0.000062 1.000000 0.000007
v 29.500246 29.499502 84.500816
vn 0.000062 1.000000 0.000007
v -18.748278 29.502182 127.518257
vn 0.000002 1.000000 -0.000061
v -18.748278 29.502182 127.518257
vn 0.000002 1.000000 -0.000061
v 29.500246 29.499502 84.500816
vn 0.000002 1.000000 -0.000061
v -29.499508 29.499592 84.501236
vn -0.001486 0.885758 0.464144
v -18.748278 29.502182 127.518257
vn -0.001486 0.885758 0.464144
v -0.944959 20.268278 145.196945
vn -0.001486 0.885758 0.464144
v 18.663307 29.499880 127.642410
# 90 vertices, 0 vertices normals

f 1//1 2//2 3//3
f 4//4 5//5 6//6
f 7//7 8//8 9//9
f 10//10 11//11 12//12
f 13//13 14//14 15//15
f 16//16 17//17 18//18
f 19//19 20//20 21//21
f 22//22 23//23 24//24
f 25//25 26//26 27//27
f 28//28 29//29 30//30
f 31//31 32//32 33//33
f 34//34 35//35 36//36
f 37//37 38//38 39//39
f 40//40 41//41 42//42
f 43//43 44//44 45//45
f 46//46 47//47 48//48
f 49//49 50//50 51//51
f 52//52 53//53 54//54
f 55//55 56//56 57//57
f 58//58 59//59 60//60
f 61//61 62//62 63//63
f 64//64 65//65 66//66
f 67//67 68//68 69//69
f 70//70 71//71 72//72
f 73//73 74//74 75//75
f 76//76 77//77 78//78
f 79//79 80//80 81//81
f 82//82 83//83 84//84
f 85//85 86//86 87//87
f 88//88 89//89 90//90
# 30 faces, 0 coords texture

# End of File