####
#
# OBJ File Generated by Meshlab
#
####
# Object NewChest.obj
#
# Vertices: 300
# Faces: 100
#
####
vn -0.822119 0.294771 0.487064
v -102.471924 50.804722 -14.499661
vn -0.822119 0.294771 0.487064
v -54.790531 41.205521 71.791481
vn -0.822119 0.294771 0.487064
v -16.335644 209.975983 34.560005
vn 0.395999 0.000026 -0.918251
v 24.850965 -161.969574 -141.727463
vn 0.395999 0.000026 -0.918251
v 24.897800 162.078583 -141.697952
vn 0.395999 0.000026 -0.918251
v 80.692947 -1.469959 -117.640793
vn 0.488347 0.038363 -0.871806
v 68.132973 127.369438 -119.006889
vn 0.488347 0.038363 -0.871806
v 80.692947 -1.469959 -117.640793
vn 0.488347 0.038363 -0.871806
v 24.897800 162.078583 -141.697952
vn 0.744294 0.002376 0.667848
v 91.697304 177.266754 28.161068
vn 0.744294 0.002376 0.667848
v 97.658829 -180.131516 22.788647
vn 0.744294 0.002376 0.667848
v 103.225052 185.044357 15.286110
vn 0.120028 0.728895 0.674022
v -13.672075 252.257935 -9.811441
vn 0.120028 0.728895 0.674022
v -19.884836 237.130020 7.654421
vn 0.120028 0.728895 0.674022
v 48.058468 225.794342 7.813813
vn -0.914997 0.402783 0.023395
v -19.884836 237.130020 7.654421
vn -0.914997 0.402783 0.023395
v -13.672075 252.257935 -9.811441
vn -0.914997 0.402783 0.023395
v -102.471924 50.804722 -14.499661
vn 0.116269 0.706703 0.697891
v -19.884836 237.130020 7.654421
vn 0.116269 0.706703 0.697891
v -16.335644 209.975983 34.560005
vn 0.116269 0.706703 0.697891
v 48.058468 225.794342 7.813813
vn -0.841194 0.321124 0.435054
v -19.884836 237.130020 7.654421
vn -0.841194 0.321124 0.435054
v -102.471924 50.804722 -14.499661
vn -0.841194 0.321124 0.435054
v -16.335644 209.975983 34.560005
vn 0.880195 0.080847 -0.467676
v 103.131134 232.959747 -34.884842
vn 0.880195 0.080847 -0.467676
v 80.692947 -1.469959 -117.640793
vn 0.880195 0.080847 -0.467676
v 68.132973 127.369438 -119.006889
vn -0.822688 -0.294867 0.486044
v -54.792019 -41.202568 71.791664
vn -0.822688 -0.294867 0.486044
v -102.209145 -48.718597 -13.027226
vn -0.822688 -0.294867 0.486044
v -17.881134 -217.825165 27.116640
vn -0.835477 -0.308704 0.454621
v -17.881134 -217.825165 27.116640
vn -0.835477 -0.308704 0.454621
v -102.209145 -48.718597 -13.027226
vn -0.835477 -0.308704 0.454621
v -20.184826 -231.643188 13.500105
vn 0.561883 -0.060534 0.824999
v 97.658829 -180.131516 22.788647
vn 0.561883 -0.060534 0.824999
v 36.508045 1.293093 77.748688
vn 0.561883 -0.060534 0.824999
v 63.193485 -168.985291 47.079865
vn 0.668404 -0.000032 0.743798
v 91.697304 177.266754 28.161068
vn 0.668404 -0.000032 0.743798
v 36.508045 1.293093 77.748688
vn 0.668404 -0.000032 0.743798
v 97.658829 -180.131516 22.788647
vn 0.262753 0.592485 0.761527
v 66.759766 170.066055 44.719063
vn 0.262753 0.592485 0.761527
v 48.058468 225.794342 7.813813
vn 0.262753 0.592485 0.761527
v 29.523846 175.972717 52.971230
vn 0.538181 0.067942 0.840086
v 66.759766 170.066055 44.719063
vn 0.538181 0.067942 0.840086
v 36.508045 1.293093 77.748688
vn 0.538181 0.067942 0.840086
v 91.697304 177.266754 28.161068
vn 0.318011 0.595351 0.737853
v 91.697304 177.266754 28.161068
vn 0.318011 0.595351 0.737853
v 48.058468 225.794342 7.813813
vn 0.318011 0.595351 0.737853
v 66.759766 170.066055 44.719063
vn -0.755648 -0.005781 -0.654952
v -102.262970 -51.360378 -92.056534
vn -0.755648 -0.005781 -0.654952
v -102.804459 48.511433 -92.313347
vn -0.755648 -0.005781 -0.654952
v -80.178696 -11.452168 -117.888435
vn -0.915060 0.403314 0.001761
v -102.471924 50.804722 -14.499661
vn -0.915060 0.403314 0.001761
v -13.672075 252.257935 -9.811441
vn -0.915060 0.403314 0.001761
v -102.200188 51.746662 -89.025101
vn -0.804328 0.398176 -0.441036
v -53.221664 146.656754 -94.131142
vn -0.804328 0.398176 -0.441036
v -31.387714 160.981232 -121.017853
vn -0.804328 0.398176 -0.441036
v -102.804459 48.511433 -92.313347
vn 0.376010 -0.709090 0.596496
v 48.026257 -225.739975 7.905891
vn 0.376010 -0.709090 0.596496
v 95.864105 -241.947876 -41.516708
vn 0.376010 -0.709090 0.596496
v 109.837837 -216.490112 -20.062084
vn -0.423152 -0.672788 -0.606876
v -31.806911 -163.075760 -118.721581
vn -0.423152 -0.672788 -0.606876
v 31.039461 -269.014282 -45.097637
vn -0.423152 -0.672788 -0.606876
v 1.236782 -264.410736 -29.420841
vn 0.892098 -0.084244 -0.443919
v 68.121346 -127.373802 -119.011497
vn 0.892098 -0.084244 -0.443919
v 80.692947 -1.469959 -117.640793
vn 0.892098 -0.084244 -0.443919
v 95.864105 -241.947876 -41.516708
vn 0.998740 0.000458 0.050179
v 111.351517 208.720322 -12.528246
vn 0.998740 0.000458 0.050179
v 110.954605 201.229584 -4.559930
vn 0.998740 0.000458 0.050179
v 111.129684 -200.964645 -4.373192
vn 0.384270 0.678267 0.626331
v 111.351517 208.720322 -12.528246
vn 0.384270 0.678267 0.626331
v 110.046669 216.481415 -20.132332
vn 0.384270 0.678267 0.626331
v 48.058468 225.794342 7.813813
vn 0.985509 -0.000503 -0.169625
v 111.351517 208.720322 -12.528246
vn 0.985509 -0.000503 -0.169625
v 109.837837 -216.490112 -20.062084
vn 0.985509 -0.000503 -0.169625
v 110.046669 216.481415 -20.132332
vn 0.378101 0.700524 0.605232
v 103.131134 232.959747 -34.884842
vn 0.378101 0.700524 0.605232
v 48.058468 225.794342 7.813813
vn 0.378101 0.700524 0.605232
v 110.046669 216.481415 -20.132332
vn 0.385180 0.662734 0.642200
v 111.351517 208.720322 -12.528246
vn 0.385180 0.662734 0.642200
v 48.058468 225.794342 7.813813
vn 0.385180 0.662734 0.642200
v 110.954605 201.229584 -4.559930
vn 0.143967 -0.771899 0.619229
v 48.026257 -225.739975 7.905891
vn 0.143967 -0.771899 0.619229
v -15.660089 -248.467392 -5.618289
vn 0.143967 -0.771899 0.619229
v 1.236782 -264.410736 -29.420841
vn 0.118378 -0.731373 0.671625
v -20.184826 -231.643188 13.500105
vn 0.118378 -0.731373 0.671625
v -15.660089 -248.467392 -5.618289
vn 0.118378 -0.731373 0.671625
v 48.026257 -225.739975 7.905891
vn -0.910331 -0.392848 0.130259
v -20.184826 -231.643188 13.500105
vn -0.910331 -0.392848 0.130259
v -102.200005 -51.748276 -17.128941
vn -0.910331 -0.392848 0.130259
v -15.660089 -248.467392 -5.618289
vn 0.106424 0.143812 0.983866
v 29.523846 175.972717 52.971230
vn 0.106424 0.143812 0.983866
v -0.139865 41.613262 75.819267
vn 0.106424 0.143812 0.983866
v 36.508045 1.293093 77.748688
vn 0.236036 0.145716 0.960757
v 36.508045 1.293093 77.748688
vn 0.236036 0.145716 0.960757
v 66.759766 170.066055 44.719063
vn 0.236036 0.145716 0.960757
v 29.523846 175.972717 52.971230
vn 0.362126 0.618169 0.697662
v 48.058468 225.794342 7.813813
vn 0.362126 0.618169 0.697662
v 91.697304 177.266754 28.161068
vn 0.362126 0.618169 0.697662
v 103.225052 185.044357 15.286110
vn -0.588925 -0.183557 -0.787067
v -102.262970 -51.360378 -92.056534
vn -0.588925 -0.183557 -0.787067
v -80.178696 -11.452168 -117.888435
vn -0.588925 -0.183557 -0.787067
v -31.806911 -163.075760 -118.721581
vn -0.862529 0.430832 -0.265382
v -102.200188 51.746662 -89.025101
vn -0.862529 0.430832 -0.265382
v -53.221664 146.656754 -94.131142
vn -0.862529 0.430832 -0.265382
v -102.804459 48.511433 -92.313347
vn 0.185780 -0.789461 0.585010
v 31.039461 -269.014282 -45.097637
vn 0.185780 -0.789461 0.585010
v 48.026257 -225.739975 7.905891
vn 0.185780 -0.789461 0.585010
v 1.236782 -264.410736 -29.420841
vn 0.549133 -0.418690 -0.723293
v 72.404709 -258.572937 -49.703682
vn 0.549133 -0.418690 -0.723293
v 24.850965 -161.969574 -141.727463
vn 0.549133 -0.418690 -0.723293
v 95.864105 -241.947876 -41.516708
vn 0.957865 -0.000509 -0.287217
v 80.692947 -1.469959 -117.640793
vn 0.957865 -0.000509 -0.287217
v 110.046669 216.481415 -20.132332
vn 0.957865 -0.000509 -0.287217
v 109.837837 -216.490112 -20.062084
vn 0.880626 -0.091601 -0.464873
v 80.692947 -1.469959 -117.640793
vn 0.880626 -0.091601 -0.464873
v 109.837837 -216.490112 -20.062084
vn 0.880626 -0.091601 -0.464873
v 95.864105 -241.947876 -41.516708
vn 0.160667 0.778703 0.606472
v 48.058468 225.794342 7.813813
vn 0.160667 0.778703 0.606472
v 25.484442 270.126892 -43.128330
vn 0.160667 0.778703 0.606472
v -13.672075 252.257935 -9.811441
vn 0.845738 -0.001929 0.533594
v 103.225052 185.044357 15.286110
vn 0.845738 -0.001929 0.533594
v 97.658829 -180.131516 22.788647
vn 0.845738 -0.001929 0.533594
v 107.203026 -190.922302 7.622242
vn 0.376308 0.633423 0.676142
v 108.866241 194.203598 3.565946
vn 0.376308 0.633423 0.676142
v 48.058468 225.794342 7.813813
vn 0.376308 0.633423 0.676142
v 103.225052 185.044357 15.286110
vn 0.968414 0.000537 0.249349
v 108.866241 194.203598 3.565946
vn 0.968414 0.000537 0.249349
v 111.129684 -200.964645 -4.373192
vn 0.968414 0.000537 0.249349
v 110.954605 201.229584 -4.559930
vn 0.950173 -0.000820 0.311722
v 111.129684 -200.964645 -4.373192
vn 0.950173 -0.000820 0.311722
v 108.866241 194.203598 3.565946
vn 0.950173 -0.000820 0.311722
v 107.203026 -190.922302 7.622242
vn 0.900849 0.000682 0.434133
v 108.866241 194.203598 3.565946
vn 0.900849 0.000682 0.434133
v 103.225052 185.044357 15.286110
vn 0.900849 0.000682 0.434133
v 107.203026 -190.922302 7.622242
vn -0.915314 -0.402738 -0.001316
v -15.660089 -248.467392 -5.618289
vn -0.915314 -0.402738 -0.001316
v -102.200005 -51.748276 -17.128941
vn -0.915314 -0.402738 -0.001316
v -102.262970 -51.360378 -92.056534
vn -0.893507 -0.362150 0.265506
v -102.200005 -51.748276 -17.128941
vn -0.893507 -0.362150 0.265506
v -20.184826 -231.643188 13.500105
vn -0.893507 -0.362150 0.265506
v -102.209145 -48.718597 -13.027226
vn -0.140637 0.000005 0.990061
v -54.790531 41.205521 71.791481
vn -0.140637 0.000005 0.990061
v -54.792019 -41.202568 71.791664
vn -0.140637 0.000005 0.990061
v -9.014194 -26.247229 78.294281
vn -0.073618 0.182965 0.980359
v -0.139865 41.613262 75.819267
vn -0.073618 0.182965 0.980359
v 29.523846 175.972717 52.971230
vn -0.073618 0.182965 0.980359
v -54.790531 41.205521 71.791481
vn -0.192935 0.253095 0.948008
v -54.790531 41.205521 71.791481
vn -0.192935 0.253095 0.948008
v 29.523846 175.972717 52.971230
vn -0.192935 0.253095 0.948008
v -16.335644 209.975983 34.560005
vn -0.806024 -0.405407 -0.431242
v -102.262970 -51.360378 -92.056534
vn -0.806024 -0.405407 -0.431242
v -31.806911 -163.075760 -118.721581
vn -0.806024 -0.405407 -0.431242
v -53.221584 -146.656952 -94.131111
vn -0.273470 0.649078 -0.709867
v 25.484442 270.126892 -43.128330
vn -0.273470 0.649078 -0.709867
v 24.897800 162.078583 -141.697952
vn -0.273470 0.649078 -0.709867
v -31.387714 160.981232 -121.017853
vn 0.085211 -0.664918 -0.742040
v 72.404709 -258.572937 -49.703682
vn 0.085211 -0.664918 -0.742040
v 31.039461 -269.014282 -45.097637
vn 0.085211 -0.664918 -0.742040
v 24.850965 -161.969574 -141.727463
vn 0.488931 -0.039333 -0.871435
v 80.692947 -1.469959 -117.640793
vn 0.488931 -0.039333 -0.871435
v 68.121346 -127.373802 -119.011497
vn 0.488931 -0.039333 -0.871435
v 24.850965 -161.969574 -141.727463
vn 0.629953 -0.324658 -0.705518
v 24.850965 -161.969574 -141.727463
vn 0.629953 -0.324658 -0.705518
v 68.121346 -127.373802 -119.011497
vn 0.629953 -0.324658 -0.705518
v 95.864105 -241.947876 -41.516708
vn 0.630388 0.324088 -0.705393
v 68.132973 127.369438 -119.006889
vn 0.630388 0.324088 -0.705393
v 24.897800 162.078583 -141.697952
vn 0.630388 0.324088 -0.705393
v 84.716347 251.298798 -47.248356
vn 0.160551 0.664740 -0.729619
v 84.716347 251.298798 -47.248356
vn 0.160551 0.664740 -0.729619
v 24.897800 162.078583 -141.697952
vn 0.160551 0.664740 -0.729619
v 25.484442 270.126892 -43.128330
vn 0.382634 0.647958 0.658591
v 110.954605 201.229584 -4.559930
vn 0.382634 0.647958 0.658591
v 48.058468 225.794342 7.813813
vn 0.382634 0.647958 0.658591
v 108.866241 194.203598 3.565946
vn 0.349915 0.739257 0.575377
v 103.131134 232.959747 -34.884842
vn 0.349915 0.739257 0.575377
v 84.716347 251.298798 -47.248356
vn 0.349915 0.739257 0.575377
v 48.058468 225.794342 7.813813
vn 0.136064 -0.660093 0.738759
v 7.697599 -187.565308 49.443249
vn 0.136064 -0.660093 0.738759
v -17.881134 -217.825165 27.116640
vn 0.136064 -0.660093 0.738759
v 48.026257 -225.739975 7.905891
vn -0.398299 -0.302287 0.866014
v 7.697599 -187.565308 49.443249
vn -0.398299 -0.302287 0.866014
v -54.792019 -41.202568 71.791664
vn -0.398299 -0.302287 0.866014
v -17.881134 -217.825165 27.116640
vn 0.108397 -0.159735 0.981191
v -9.014194 -26.247229 78.294281
vn 0.108397 -0.159735 0.981191
v 63.193485 -168.985291 47.079865
vn 0.108397 -0.159735 0.981191
v 36.508045 1.293093 77.748688
vn 0.231612 -0.593774 0.770577
v 63.193485 -168.985291 47.079865
vn 0.231612 -0.593774 0.770577
v 7.697599 -187.565308 49.443249
vn 0.231612 -0.593774 0.770577
v 48.026257 -225.739975 7.905891
vn 0.161256 0.629177 0.760350
v -16.335644 209.975983 34.560005
vn 0.161256 0.629177 0.760350
v 29.523846 175.972717 52.971230
vn 0.161256 0.629177 0.760350
v 48.058468 225.794342 7.813813
vn -0.073765 0.045980 0.996215
v -54.790531 41.205521 71.791481
vn -0.073765 0.045980 0.996215
v -9.014194 -26.247229 78.294281
vn -0.073765 0.045980 0.996215
v -0.139865 41.613262 75.819267
vn -0.552958 0.141561 -0.821096
v -80.178696 -11.452168 -117.888435
vn -0.552958 0.141561 -0.821096
v -102.804459 48.511433 -92.313347
vn -0.552958 0.141561 -0.821096
v -31.387714 160.981232 -121.017853
vn -0.443825 0.109441 -0.889405
v -5.028358 85.151527 -143.502365
vn -0.443825 0.109441 -0.889405
v -80.178696 -11.452168 -117.888435
vn -0.443825 0.109441 -0.889405
v -31.387714 160.981232 -121.017853
vn -0.322614 0.000002 -0.946531
v -5.028358 85.151527 -143.502365
vn -0.322614 0.000002 -0.946531
v 1.976836 -106.687393 -145.890381
vn -0.322614 0.000002 -0.946531
v -80.178696 -11.452168 -117.888435
vn 0.386604 -0.671250 0.632424
v 111.129684 -200.964645 -4.373192
vn 0.386604 -0.671250 0.632424
v 48.026257 -225.739975 7.905891
vn 0.386604 -0.671250 0.632424
v 109.837837 -216.490112 -20.062084
vn 0.996795 -0.002132 -0.079968
v 109.837837 -216.490112 -20.062084
vn 0.996795 -0.002132 -0.079968
v 111.351517 208.720322 -12.528246
vn 0.996795 -0.002132 -0.079968
v 111.129684 -200.964645 -4.373192
vn 0.333709 -0.751288 0.569390
v 48.026257 -225.739975 7.905891
vn 0.333709 -0.751288 0.569390
v 72.404709 -258.572937 -49.703682
vn 0.333709 -0.751288 0.569390
v 95.864105 -241.947876 -41.516708
vn 0.710998 0.278687 -0.645612
v 103.131134 232.959747 -34.884842
vn 0.710998 0.278687 -0.645612
v 68.132973 127.369438 -119.006889
vn 0.710998 0.278687 -0.645612
v 84.716347 251.298798 -47.248356
vn -0.780150 -0.537086 -0.320788
v -31.806911 -163.075760 -118.721581
vn -0.780150 -0.537086 -0.320788
v 1.236782 -264.410736 -29.420841
vn -0.780150 -0.537086 -0.320788
v -53.221584 -146.656952 -94.131111
vn 0.097189 -0.165454 0.981417
v 7.697599 -187.565308 49.443249
vn 0.097189 -0.165454 0.981417
v 63.193485 -168.985291 47.079865
vn 0.097189 -0.165454 0.981417
v -9.014194 -26.247229 78.294281
vn -0.079251 -0.183448 0.979830
v 7.697599 -187.565308 49.443249
vn -0.079251 -0.183448 0.979830
v -9.014194 -26.247229 78.294281
vn -0.079251 -0.183448 0.979830
v -54.792019 -41.202568 71.791664
vn 0.025858 0.013387 -0.999576
v -5.028358 85.151527 -143.502365
vn 0.025858 0.013387 -0.999576
v 24.897800 162.078583 -141.697952
vn 0.025858 0.013387 -0.999576
v 1.976836 -106.687393 -145.890381
vn -0.647284 0.636533 -0.419343
v -13.672075 252.257935 -9.811441
vn -0.647284 0.636533 -0.419343
v 25.484442 270.126892 -43.128330
vn -0.647284 0.636533 -0.419343
v -31.387714 160.981232 -121.017853
vn -0.767036 0.550461 -0.329619
v -53.221664 146.656754 -94.131142
vn -0.767036 0.550461 -0.329619
v -13.672075 252.257935 -9.811441
vn -0.767036 0.550461 -0.329619
v -31.387714 160.981232 -121.017853
vn -0.882249 0.447404 -0.146512
v -13.672075 252.257935 -9.811441
vn -0.882249 0.447404 -0.146512
v -53.221664 146.656754 -94.131142
vn -0.882249 0.447404 -0.146512
v -102.200188 51.746662 -89.025101
vn 0.381726 -0.643383 0.663584
v 107.203026 -190.922302 7.622242
vn 0.381726 -0.643383 0.663584
v 48.026257 -225.739975 7.905891
vn 0.381726 -0.643383 0.663584
v 111.129684 -200.964645 -4.373192
vn 0.373203 -0.628744 0.682203
v 48.026257 -225.739975 7.905891
vn 0.373203 -0.628744 0.682203
v 107.203026 -190.922302 7.622242
vn 0.373203 -0.628744 0.682203
v 97.658829 -180.131516 22.788647
vn -0.363453 -0.218581 -0.905607
v -31.806911 -163.075760 -118.721581
vn -0.363453 -0.218581 -0.905607
v 1.976836 -106.687393 -145.890381
vn -0.363453 -0.218581 -0.905607
v 24.850965 -161.969574 -141.727463
vn -0.463979 -0.143218 -0.874192
v -80.178696 -11.452168 -117.888435
vn -0.463979 -0.143218 -0.874192
v 1.976836 -106.687393 -145.890381
vn -0.463979 -0.143218 -0.874192
v -31.806911 -163.075760 -118.721581
vn 0.923328 0.046200 -0.381223
v 103.131134 232.959747 -34.884842
vn 0.923328 0.046200 -0.381223
v 110.046669 216.481415 -20.132332
vn 0.923328 0.046200 -0.381223
v 80.692947 -1.469959 -117.640793
vn 0.287048 0.781959 0.553302
v 48.058468 225.794342 7.813813
vn 0.287048 0.781959 0.553302
v 84.716347 251.298798 -47.248356
vn 0.287048 0.781959 0.553302
v 25.484442 270.126892 -43.128330
vn 0.118369 -0.706902 0.697336
v 48.026257 -225.739975 7.905891
vn 0.118369 -0.706902 0.697336
v -17.881134 -217.825165 27.116640
vn 0.118369 -0.706902 0.697336
v -20.184826 -231.643188 13.500105
vn -0.343355 0.155299 -0.926277
v -5.028358 85.151527 -143.502365
vn -0.343355 0.155299 -0.926277
v -31.387714 160.981232 -121.017853
vn -0.343355 0.155299 -0.926277
v 24.897800 162.078583 -141.697952
vn -0.881166 -0.450329 -0.144050
v -53.221584 -146.656952 -94.131111
vn -0.881166 -0.450329 -0.144050
v -15.660089 -248.467392 -5.618289
vn -0.881166 -0.450329 -0.144050
v -102.262970 -51.360378 -92.056534
vn -0.823695 -0.513319 -0.240892
v -53.221584 -146.656952 -94.131111
vn -0.823695 -0.513319 -0.240892
v 1.236782 -264.410736 -29.420841
vn -0.823695 -0.513319 -0.240892
v -15.660089 -248.467392 -5.618289
vn 0.325855 -0.594487 0.735121
v 48.026257 -225.739975 7.905891
vn 0.325855 -0.594487 0.735121
v 97.658829 -180.131516 22.788647
vn 0.325855 -0.594487 0.735121
v 63.193485 -168.985291 47.079865
vn -0.273910 -0.653124 -0.705976
v 24.850965 -161.969574 -141.727463
vn -0.273910 -0.653124 -0.705976
v 31.039461 -269.014282 -45.097637
vn -0.273910 -0.653124 -0.705976
v -31.806911 -163.075760 -118.721581
vn 0.260912 -0.787065 0.558975
v 48.026257 -225.739975 7.905891
vn 0.260912 -0.787065 0.558975
v 31.039461 -269.014282 -45.097637
vn 0.260912 -0.787065 0.558975
v 72.404709 -258.572937 -49.703682
vn -0.875028 0.004851 0.484049
v -54.790531 41.205521 71.791481
vn -0.875028 0.004851 0.484049
v -102.471924 50.804722 -14.499661
vn -0.875028 0.004851 0.484049
v -102.209145 -48.718597 -13.027226
vn -0.872864 0.000017 0.487964
v -54.792019 -41.202568 71.791664
vn -0.872864 0.000017 0.487964
v -54.790531 41.205521 71.791481
vn -0.872864 0.000017 0.487964
v -102.209145 -48.718597 -13.027226
vn -0.999996 -0.002629 0.000769
v -102.209145 -48.718597 -13.027226
vn -0.999996 -0.002629 0.000769
v -102.471924 50.804722 -14.499661
vn -0.999996 -0.002629 0.000769
v -102.262970 -51.360378 -92.056534
vn -0.999991 -0.004126 0.000819
v -102.200005 -51.748276 -17.128941
vn -0.999991 -0.004126 0.000819
v -102.209145 -48.718597 -13.027226
vn -0.999991 -0.004126 0.000819
v -102.262970 -51.360378 -92.056534
vn -0.999993 0.000716 -0.003637
v -102.471924 50.804722 -14.499661
vn -0.999993 0.000716 -0.003637
v -102.200188 51.746662 -89.025101
vn -0.999993 0.000716 -0.003637
v -102.262970 -51.360378 -92.056534
vn -0.982660 -0.004851 0.185353
v -102.262970 -51.360378 -92.056534
vn -0.982660 -0.004851 0.185353
v -102.200188 51.746662 -89.025101
vn -0.982660 -0.004851 0.185353
v -102.804459 48.511433 -92.313347
vn 0.179200 0.000064 -0.983813
v 24.897800 162.078583 -141.697952
vn 0.179200 0.000064 -0.983813
v 24.850965 -161.969574 -141.727463
vn 0.179200 0.000064 -0.983813
v 1.976836 -106.687393 -145.890381
vn -0.010937 0.037874 0.999223
v 36.508045 1.293093 77.748688
vn -0.010937 0.037874 0.999223
v -0.139865 41.613262 75.819267
vn -0.010937 0.037874 0.999223
v -9.014194 -26.247229 78.294281
# 300 vertices, 0 vertices normals

f 1//1 2//2 3//3
f 4//4 5//5 6//6
f 7//7 8//8 9//9
f 10//10 11//11 12//12
f 13//13 14//14 15//15
f 16//16 17//17 18//18
f 19//19 20//20 21//21
f 22//22 23//23 24//24
f 25//25 26//26 27//27
f 28//28 29//29 30//30
f 31//31 32//32 33//33
f 34//34 35//35 36//36
f 37//37 38//38 39//39
f 40//40 41//41 42//42
f 43//43 44//44 45//45
f 46//46 47//47 48//48
f 49//49 50//50 51//51
f 52//52 53//53 54//54
f 55//55 56//56 57//57
f 58//58 59//59 60//60
f 61//61 62//62 63//63
f 64//64 65//65 66//66
f 67//67 68//68 69//69
f 70//70 71//71 72//72
f 73//73 74//74 75//75
f 76//76 77//77 78//78
f 79//79 80//80 81//81
f 82//82 83//83 84//84
f 85//85 86//86 87//87
f 88//88 89//89 90//90
f 91//91 92//92 93//93
f 94//94 95//95 96//96
f 97//97 98//98 99//99
f 100//100 101//101 102//102
f 103//103 104//104 105//105
f 106//106 107//107 108//108
f 109//109 110//110 111//111
f 112//112 113//113 114//114
f 115//115 116//116 117//117
f 118//118 119//119 120//120
f 121//121 122//122 123//123
f 124//124 125//125 126//126
f 127//127 128//128 129//129
f 130//130 131//131 132//132
f 133//133 134//134 135//135
f 136//136 137//137 138//138
f 139//139 140//140 141//141
f 142//142 143//143 144//144
f 145//145 146//146 147//147
f 148//148 149//149 150//150
f 151//151 152//152 153//153
f 154//154 155//155 156//156
f 157//157 158//158 159//159
f 160//160 161//161 162//162
f 163//163 164//164 165//165
f 166//166 167//167 168//168
f 169//169 170//170 171//171
f 172//172 173//173 174//174
f 175//175 176//176 177//177
f 178//178 179//179 180//180
f 181//181 182//182 183//183
f 184//184 185//185 186//186
f 187//187 188//188 189//189
f 190//190 191//191 192//192
f 193//193 194//194 195//195
f 196//196 197//197 198//198
f 199//199 200//200 201//201
f 202//202 203//203 204//204
f 205//205 206//206 207//207
f 208//208 209//209 210//210
f 211//211 212//212 213//213
f 214//214 215//215 216//216
f 217//217 218//218 219//219
f 220//220 221//221 222//222
f 223//223 224//224 225//225
f 226//226 227//227 228//228
f 229//229 230//230 231//231
f 232//232 233//233 234//234
f 235//235 236//236 237//237
f 238//238 239//239 240//240
f 241//241 242//242 243//243
f 244//244 245//245 246//246
f 247//247 248//248 249//249
f 250//250 251//251 252//252
f 253//253 254//254 255//255
f 256//256 257//257 258//258
f 259//259 260//260 261//261
f 262//262 263//263 264//264
f 265//265 266//266 267//267
f 268//268 269//269 270//270
f 271//271 272//272 273//273
f 274//274 275//275 276//276
f 277//277 278//278 279//279
f 280//280 281//281 282//282
f 283//283 284//284 285//285
f 286//286 287//287 288//288
f 289//289 290//290 291//291
f 292//292 293//293 294//294
f 295//295 296//296 297//297
f 298//298 299//299 300//300
# 100 faces, 0 coords texture

# End of File